<?xml version="1.0" encoding="UTF-8" standalone="no"?>
<svg
   xmlns:dc="http://purl.org/dc/elements/1.1/"
   xmlns:cc="http://creativecommons.org/ns#"
   xmlns:rdf="http://www.w3.org/1999/02/22-rdf-syntax-ns#"
   xmlns:svg="http://www.w3.org/2000/svg"
   xmlns="http://www.w3.org/2000/svg"
   viewBox="0 0 1280 720"
   height="720"
   width="1280"
   xml:space="preserve"
   id="svg2"
   version="1.1"><metadata
     id="metadata8"><rdf:RDF><cc:Work
         rdf:about=""><dc:format>image/svg+xml</dc:format><dc:type
           rdf:resource="http://purl.org/dc/dcmitype/StillImage" /></cc:Work></rdf:RDF></metadata><defs
     id="defs6"><clipPath
       id="clipPath18"
       clipPathUnits="userSpaceOnUse"><path
         style="clip-rule:evenodd"
         id="path16"
         d="M 0,1.2207e-4 H 960 V 540.00012 H 0 Z" /></clipPath><clipPath
       id="clipPath28"
       clipPathUnits="userSpaceOnUse"><path
         style="clip-rule:evenodd"
         id="path26"
         d="M 1.4305e-5,0 H 960.00001 V 540 H 1.4305e-5 Z" /></clipPath></defs><g
     transform="matrix(1.3333333,0,0,-1.3333333,0,720)"
     id="g10"><g
       id="g12"><g
         clip-path="url(#clipPath18)"
         id="g14"><path
           id="path20"
           style="fill:#ffffff;fill-opacity:1;fill-rule:evenodd;stroke:none"
           d="M 0,6.1035e-5 H 960 V 540.00006 H 0 Z" /></g></g><g
       id="g22"><g
         clip-path="url(#clipPath28)"
         id="g24"><text
           id="text32"
           style="font-variant:normal;font-weight:normal;font-size:150.02000427px;font-family:'Courier 10 Pitch';-inkscape-font-specification:CourierNewPSMT;writing-mode:lr-tb;fill:#2b79db;fill-opacity:1;fill-rule:nonzero;stroke:none"
           transform="matrix(1,0,0,-1,225.72,224.33)"><tspan
             id="tspan30"
             y="0"
             x="0 90.021606 180.04321 270.06482 360.08643 450.10806 540.12964 630.15125">Accedere</tspan></text>
</g></g><path
       id="path34"
       style="fill:#00b0f0;fill-opacity:1;fill-rule:evenodd;stroke:none"
       d="M 37.56,297.84 H 87.69 L 104.4,253.02 87.69,208.2 H 37.56 l 16.71,44.82 z" /><path
       id="path36"
       style="fill:#ffff00;fill-opacity:0.74901997;fill-rule:evenodd;stroke:none"
       d="m 71.4,275.28 h 50.13 l 16.71,-44.82 -16.71,-44.82 H 71.4 l 16.71,44.82 z" /><path
       id="path38"
       style="fill:#33cc33;fill-opacity:0.74901997;fill-rule:evenodd;stroke:none"
       d="M 99.48,328.8 H 149.7 L 166.44,283.98 149.7,239.16 H 99.48 l 16.74,44.82 z" /></g></svg>