<?xml version="1.0" standalone="no"?>
<!DOCTYPE svg PUBLIC "-//W3C//DTD SVG 20010904//EN"
 "http://www.w3.org/TR/2001/REC-SVG-20010904/DTD/svg10.dtd">
<svg version="1.0" xmlns="http://www.w3.org/2000/svg"
 width="187.000000pt" height="40.000000pt" viewBox="0 0 187.000000 40.000000"
 preserveAspectRatio="xMidYMid meet">

<g transform="translate(0.000000,40.000000) scale(0.100000,-0.100000)"
fill="#000000" stroke="none">
<path d="M817 382 c-16 -18 -16 -20 3 -37 19 -18 22 -18 37 -2 16 16 16 18 -3
37 -20 20 -21 20 -37 2z"/>
<path d="M950 360 c-11 -11 -20 -29 -20 -40 0 -13 -7 -20 -20 -20 -15 0 -20
-7 -20 -25 0 -18 5 -25 20 -25 18 0 20 -7 20 -80 0 -79 0 -80 25 -80 25 0 25
1 25 80 l0 80 35 0 c31 0 35 3 35 25 0 22 -4 25 -35 25 -19 0 -35 4 -35 9 0
16 30 33 50 28 11 -3 20 -1 20 3 0 5 3 15 6 24 10 26 -80 22 -106 -4z"/>
<path d="M1395 366 c-16 -7 -41 -26 -55 -41 -22 -23 -25 -36 -25 -95 0 -59 3
-72 25 -95 52 -57 134 -71 190 -32 54 36 72 68 72 127 0 109 -108 180 -207
136z m95 -171 l-34 -35 -35 35 -35 35 34 35 34 35 35 -35 35 -35 -34 -35z"/>
<path d="M1680 358 c-56 -38 -59 -108 -8 -142 13 -8 42 -18 65 -22 71 -11 85
-54 17 -54 -23 0 -38 6 -46 20 -17 27 -78 28 -78 1 0 -31 39 -70 83 -82 78
-21 157 25 157 93 0 42 -37 74 -104 89 -42 9 -56 16 -54 28 4 22 61 27 78 7
12 -16 80 -23 80 -8 0 4 -9 22 -20 40 -34 56 -112 69 -170 30z"/>
<path d="M71 342 c-39 -21 -71 -73 -71 -115 0 -104 101 -166 196 -121 37 17
43 34 19 54 -11 9 -19 8 -37 -4 -86 -61 -174 68 -91 134 31 24 61 25 91 4 18
-12 26 -13 37 -4 22 18 18 28 -17 50 -41 25 -83 25 -127 2z"/>
<path d="M667 343 c-4 -3 -7 -15 -7 -25 0 -11 -7 -18 -20 -18 -15 0 -20 -7
-20 -25 0 -18 5 -25 20 -25 18 0 20 -7 20 -58 0 -48 4 -62 23 -80 38 -36 107
-27 107 13 0 19 -5 22 -37 21 l-38 -1 -3 53 -3 52 40 0 c37 0 41 2 41 25 0 23
-4 25 -40 25 -36 0 -40 3 -40 25 0 18 -5 25 -18 25 -10 0 -22 -3 -25 -7z"/>
<path d="M293 288 c-32 -15 -56 -73 -49 -113 9 -48 57 -85 108 -85 31 0 46 7
71 33 l32 32 -28 3 c-17 2 -37 -4 -48 -14 -15 -14 -25 -16 -47 -8 -15 5 -28
17 -30 27 -3 15 6 17 72 17 l76 0 0 31 c0 46 -47 89 -97 88 -21 0 -48 -5 -60
-11z m85 -40 c21 -21 13 -28 -33 -28 -47 0 -58 12 -27 29 23 14 45 14 60 -1z"/>
<path d="M472 198 c3 -102 3 -103 28 -103 24 0 25 3 30 68 5 69 16 87 53 87
11 0 17 8 17 25 0 29 -29 34 -54 10 -18 -18 -27 -19 -23 -2 1 7 -10 13 -26 15
l-28 3 3 -103z"/>
<path d="M812 198 c3 -102 3 -103 28 -103 l25 0 0 100 0 100 -28 3 -28 3 3
-103z"/>
<path d="M1101 211 l39 -90 -25 -57 c-14 -31 -25 -58 -25 -61 0 -2 12 -3 27
-1 25 3 34 17 90 142 35 76 63 143 63 148 0 5 -12 8 -26 6 -21 -2 -31 -13 -48
-55 -11 -29 -24 -53 -27 -53 -4 0 -17 25 -29 55 -20 48 -26 55 -51 55 l-28 0
40 -89z"/>
</g>
</svg>
