<?xml version="1.0" encoding="utf-8"?>
<!-- Generator: Adobe Illustrator 24.1.2, SVG Export Plug-In . SVG Version: 6.00 Build 0)  -->
<svg version="1.1" id="Layer_1" xmlns="http://www.w3.org/2000/svg" xmlns:xlink="http://www.w3.org/1999/xlink" x="0px" y="0px"
	 viewBox="0 0 2500 2500" style="enable-background:new 0 0 2500 2500;" xml:space="preserve">
<style type="text/css">
	.st0{fill:#FFFFFF;}
	.st1{fill:#E6F3FF;}
	.st2{fill:#BBD5EA;}
	.st3{fill:#F7D5BC;}
	.st4{fill:#3A38AD;}
	.st5{fill:#323270;}
	.st6{fill:#2473FF;}
	.st7{fill:#E3F3FF;}
	.st8{fill:#F3FAFF;}
	.st9{opacity:0.2;fill:#C4D6E8;}
</style>
<g>
	<rect y="0" class="st0" width="2500" height="2500"/>
</g>
<g>
	<g>
		<path class="st1" d="M450.33,1793.29c19.72,66.59,53.3,121.17,107.27,161.78h1290.75c44.94-77.21,90.73-156.28,155.67-215.47
			c325.39-296.61,7.63-429.92-4.03-708.4c-5.47-130.73-53.24-324.57-217.11-437.2c-208.27-143.14-561.73-224.8-889.14,146.83
			c-51.46,58.41-130.29,78.08-201.35,93.5c-82.24,17.85-149.32,45.41-225.86,118.02c-146.07,138.56-160.51,329.78-43.53,518.69
			C477.39,1558.88,435.66,1743.76,450.33,1793.29z"/>
		<ellipse class="st2" cx="1244" cy="1968.56" rx="930.25" ry="36.44"/>
		<g>
			<g>
				<path class="st3" d="M795.3,1297.93c0,0-0.6-9.97,2.77-23.06s14.87-30.16,18.17-35.16c3.3-5,9.63-1.54,3.21,10.73
					s-7.21,14.51-0.48,18.65s17.34,12.49,6.71,23.04c-10.63,10.55-14.04,19.46-16.5,25.01
					C806.72,1322.7,783.02,1325.25,795.3,1297.93z"/>
				<path class="st4" d="M667.4,1346.99c3.39,0.35,15.26,1.25,17.84,1.51c14.8,1.48,18.19,6.25,34.88,6.03
					c22.46-0.3,53.89-8.6,68.71-51.1c4.12-11.81,27.13-2.26,27.28,7.61c0.82,57.44-50.42,127.1-121.03,143.07
					C624.46,1470.08,643.01,1344.48,667.4,1346.99z"/>
			</g>
			<g>
				<g>
					<g>
						<path class="st3" d="M637.03,1579.29c-23.49-1.22-55.74-12.14-57.15-12.63c-0.1,0.38-0.16,0.68-0.16,0.88l53.52,19.41v2.77
							l3.82-1.39l3.82,1.39v-2.77l53.52-19.41c0-0.2-0.06-0.5-0.16-0.87c-1.47,0.5-33.68,11.41-57.16,12.63H637.03z"/>
						<path class="st3" d="M545.61,1567.74c-4.86-6.28-13.22-17.17-23.03-29.92c-7.83,1.29-15.11,5.26-20.44,11.38
							c14.64,13.64,27.4,25.24,33.02,30.09c4.91,6.86,11.88,12.15,18.39,15.86c2.94,1.68,5.78,3.03,8.3,4.06
							c1.96,0.8,3.72,1.41,5.17,1.81c8.83,2.47,16.09-31.16,4.75-29.27c-0.07,0.01-0.15,0.02-0.22,0.03
							c-2.68,0.41-5.77,0.33-8.93-0.05C556.3,1570.99,549.71,1569.08,545.61,1567.74z"/>
						<path class="st5" d="M578.58,1940.13h18.52c0-105.86,27.03-255.64,37.07-282.63c0.27-0.72,0.9-1.09,1.54-1.16
							c0,0,0.01,0,0.01,0c0.64,0.08,1.21,0.46,1.52,1.16c4.29,9.46,24.5,62.69,26.79,100.39c3.51,57.82,3.98,118.91,3.98,182.24
							l18.9,0c21.49-53.82,31.16-136.77,32.45-202.59c0.71-36.3,3.25-116.55-22.22-166.58H572.31
							c-6.27,12.84-14.52,32.52-16.71,50.85C549.82,1670.11,558.58,1842.98,578.58,1940.13z"/>
						<path class="st0" d="M603.24,1959.99c0-0.03,0-0.06,0-0.1c0-8.35-1.45-13.44-6.14-19.76h-18.52
							c-2.37,5.84-2.74,14.66-2.73,19.86H603.24z"/>
						<path class="st0" d="M707.1,1959.99c2.23-9.93-2.01-11.28-20.55-19.86h-18.52c-1.29,5.85-1.18,14.66-1.17,19.86H707.1z"/>
					</g>
					<path class="st4" d="M718.15,1442.72l-5.81-82.77c-8.39-6.64-17.86-10.82-28.92-11.36c-11.23-0.55-20.02-2.26-20.02-2.26
						s-5.11,13.49-26.31,13.49c-21.2,0-27.23-13.04-27.23-13.04c-62.48,0.01-142.39,82.4-142.47,154.46
						c-0.04,35.47,58.04,80.11,67.86,85.03c4.88,2.44,20.24-15.37,16.12-19.6c-13.76-14.11-47.63-51.05-30.38-77.78
						c17.25-26.73,41.59-23.42,41.93-21.05c0.34,2.37,17.33,25.46,7.18,69.11c-10.15,43.65-11.32,46.24,20.41,51.23
						c25.65,4.03,54.87-3.01,89.76-2.54c33.74,0.46,33.84-11.3,27.07-41.75C702.62,1522.55,714.24,1459.44,718.15,1442.72z"/>
				</g>
				<path class="st3" d="M652.97,1330.72c0,0-5.1,8.93,10.43,15.61c15.53,6.68-11.85,29.12-17.88,28.75
					c-29.37-1.84-35.65-28.29-35.65-28.29s12.68-2.56,11.89-25.42C621.16,1303.92,650.35,1318.59,652.97,1330.72z"/>
				<path class="st5" d="M591.94,1279.86c1.03-46.98,36.12-55.93,62.93-45.6c27.19,10.48,29.83,34.29,15.41,73.11
					c-2.46,6.62-42.05,42.84-71.03-0.57C594.96,1300.36,591.68,1291.98,591.94,1279.86z"/>
				<path class="st3" d="M614.83,1292.06c0,0-0.28-13.74,6.09-21.69c8.22-10.27,13.06-13.9,24.32-13.2
					c20.43,1.28,35.85,20.71,34.43,43.41c-1.42,22.7-9.36,40.67-29.79,39.39c-13.04-0.82-26.66-1.66-36.24-28.94
					c-5.57-1.9-8.13-5.44-8.9-9.83C603.3,1292.97,609.37,1290.12,614.83,1292.06L614.83,1292.06z"/>
				<path class="st5" d="M612.18,1262.99c-0.54,8.64,31.45,15.01,45.62,15.9c14.17,0.89,16.67-6.94,17.21-15.58
					c0.54-8.64-5.92-14.76-20.08-15.64C640.75,1246.78,612.72,1254.35,612.18,1262.99z"/>
				<path class="st3" d="M554.1,1570.16c2.72,0.66,5.65,1.24,8.52,1.58c3.15,0.38,6.24,0.46,8.93,0.05
					c0.07-0.01,0.15-0.02,0.22-0.03c11.34-1.88,4.08,31.74-4.75,29.27c-1.45-0.4-3.21-1.01-5.17-1.81c-2.36-0.96-5-2.21-7.75-3.75
					V1570.16z"/>
			</g>
		</g>
	</g>
	<g>
		<g>
			<g>
				<path class="st5" d="M1718.35,1498.41c23.43,41.61,81,39.15,105.89,12.1c27.36-29.74,52.34-52.27,65.95-74.76
					c26.09-43.14-10.3-64.22,1.86-86.97c13.41-25.09,7.14-44.02-10.2-65.76c-3.87-36.44-44.78-50.93-75.96-39.99
					c-27.46,9.63-35.62,27.85-37.06,54.41c-0.96,17.68-24.15,29.4-29.72,48.06c-17.01,57.04-64.33,70.79-48.15,122.99
					C1693.83,1477.76,1710.85,1485.09,1718.35,1498.41z"/>
				<g>
					<g>
						<path class="st3" d="M1818.55,1587.94c23.47-1.22,55.67-12.13,57.09-12.61c0.1,0.38,0.16,0.68,0.16,0.87l-53.45,19.39v2.77
							l-3.82-1.38l-3.82,1.38v-2.77l-53.45-19.39c0-0.2,0.06-0.5,0.16-0.87c1.47,0.5,33.64,11.4,57.09,12.61H1818.55z"/>
						<path class="st4" d="M1876.93,1948.35h-18.5c0-105.73-26.99-255.33-37.03-282.29c-0.27-0.72-0.9-1.09-1.54-1.16h-0.01
							c-0.64,0.08-1.21,0.46-1.52,1.16c-4.29,9.45-31.28,62.61-33.57,100.27c-3.51,57.75,2.83,118.76,2.83,182.02l-18.87,0
							c-21.47-53.75-37.93-136.6-39.22-202.35c-0.71-36.25,3.57-116.41,29-166.38h124.69c6.26,12.82,14.5,32.48,16.69,50.79
							C1905.66,1678.66,1896.9,1851.32,1876.93,1948.35z"/>
						<path class="st6" d="M1852.3,1968.19c0-0.03,0-0.06,0-0.06c0-8.38,1.45-13.46,6.13-19.77h18.5
							c2.36,5.83,2.74,14.64,2.72,19.84H1852.3z"/>
						<path class="st6" d="M1748.57,1968.19c-2.23-9.92,2.01-11.27,20.52-19.84h18.5c1.29,5.85,1.18,14.64,1.17,19.84H1748.57z"/>
					</g>
					<path class="st0" d="M1737.53,1451.54c-0.5-33.61,5.8-82.67,5.8-82.67c8.38-6.63,13.02-9.07,28.88-11.35
						c11.11-1.59,24.85-0.89,24.85-0.89s0.24,12.11,21.42,12.11c21.18,0,27.2-13.03,27.2-13.03c53.01,0,80.27,47.15,82.94,69.19
						c6.11,50.38-35.72,49.35-36.06,51.72c-0.34,2.37-17.31,25.43-7.18,69.02c10.14,43.59,43.34,82.6,12.42,91.16
						c-42.57,11.79-109.01-7.62-154.16-17.1c-14.22-2.99-3.43-37.05,4.66-67.14C1761.26,1504.37,1738.02,1485.15,1737.53,1451.54z"
						/>
					<path class="st3" d="M1648.83,1345.48c0,0-1.79-9.08-7.87-20.04c-6.08-10.95-18.59-14.26-23.67-8.97s-9.07,23.93,2.93,30.91
						c11.99,6.98,17.14,14.17,20.64,18.58S1666.22,1367.11,1648.83,1345.48z"/>
					<path class="st0" d="M1760.41,1359.76c-9.52,1.81-57.13,32.19-106.15-13.8c-9.11-8.55-22.12,4.76-20.4,14.47
						c7.99,44.95,50.21,76.5,130.98,92.65C1835.74,1467.25,1769.93,1357.95,1760.41,1359.76z"/>
				</g>
				<g>
					<path class="st3" d="M1806.06,1341.65c0,0,4.26,15.67-10.15,14.93c0,0-0.43,24.99,16.87,24.09
						c27.9-1.45,32.88-24.96,32.88-24.96s-13.27-1.37-12.6-20.88C1833.58,1319.95,1808.3,1331.3,1806.06,1341.65z"/>
					<path class="st5" d="M1858.52,1299.41c-0.88-40.1-30.82-47.74-53.71-38.92c-23.21,8.94-25.46,29.27-13.15,62.4
						c2.1,5.65,35.89,36.56,60.63-0.48C1855.95,1316.91,1858.75,1309.76,1858.52,1299.41z"/>
					<path class="st3" d="M1838.99,1309.82c0,0,0.24-11.73-5.19-18.52c-7.02-8.77-11.15-11.86-20.76-11.26
						c-17.44,1.09-30.6,17.68-29.38,37.05c1.21,19.37,7.99,34.71,25.43,33.62c11.13-0.7,22.76-1.42,30.93-24.7
						c4.76-1.62,6.94-4.65,7.59-8.39C1848.83,1310.6,1843.65,1308.17,1838.99,1309.82L1838.99,1309.82z"/>
					<path class="st5" d="M1846.61,1287.65c9.82,8.73-7.62,22.18-7.62,22.18c-11.29-20.21-28.31-10.54-34.62-10.14
						c-12.09,0.76-25.33-3.84-25.79-11.21c-0.46-7.37,14.09-15.78,26.19-16.54C1816.86,1271.18,1841.09,1282.74,1846.61,1287.65z"/>
				</g>
			</g>
			<ellipse class="st3" cx="1625.57" cy="1331.46" rx="13.22" ry="18.43"/>
		</g>
		<path class="st7" d="M1747,1557.42c19.76-9.01,133.6-63.55,127.63-122.8c0,0-61.77,61.4-123.7,74.66c2,12,2.1,25.72-2.62,43.33
			C1747.89,1554.17,1747.42,1555.79,1747,1557.42z"/>
	</g>
	<g>
		<path class="st0" d="M1573.71,1850.1H858.93c-27.05,0-48.98-21.93-48.98-48.98V864.46c0-27.05,21.93-48.98,48.98-48.98h767.73
			c27.05,0,48.98,21.93,48.98,48.98v883.71C1675.65,1804.46,1630.01,1850.1,1573.71,1850.1z"/>
		<path class="st8" d="M1675.64,864.45v883.74c0,56.28-45.63,101.91-101.91,101.91h-359.68l94.61-1034.64h317.99
			C1653.71,815.47,1675.64,837.4,1675.64,864.45z"/>
		<g>
			<g>
				<g>
					<path class="st2" d="M1504.99,1238.34H986.19c-13.91,0-25.18-11.28-25.18-25.18v0c0-13.91,11.28-25.18,25.18-25.18h518.81
						c13.91,0,25.18,11.28,25.18,25.18v0C1530.18,1227.07,1518.9,1238.34,1504.99,1238.34z"/>
				</g>
				<g>
					<path class="st2" d="M1348.96,1363.08H986.19c-13.91,0-25.18-11.28-25.18-25.18l0,0c0-13.91,11.28-25.18,25.18-25.18h362.77
						c13.91,0,25.18,11.27,25.18,25.18l0,0C1374.15,1351.81,1362.87,1363.08,1348.96,1363.08z"/>
				</g>
				<g>
					<path class="st2" d="M1250.44,1612.56H986.19c-13.91,0-25.18-11.28-25.18-25.18v0c0-13.91,11.28-25.18,25.18-25.18h264.25
						c13.91,0,25.18,11.28,25.18,25.18v0C1275.62,1601.29,1264.35,1612.56,1250.44,1612.56z"/>
				</g>
				<g>
					<path class="st2" d="M1250.44,1487.82H986.19c-13.91,0-25.18-11.27-25.18-25.18v0c0-13.91,11.28-25.18,25.18-25.18h264.25
						c13.91,0,25.18,11.27,25.18,25.18v0C1275.62,1476.55,1264.35,1487.82,1250.44,1487.82z"/>
				</g>
				<g>
					<path class="st2" d="M1250.44,1737.31H986.19c-13.91,0-25.18-11.28-25.18-25.18v0c0-13.91,11.28-25.18,25.18-25.18h264.25
						c13.91,0,25.18,11.28,25.18,25.18v0C1275.62,1726.03,1264.35,1737.31,1250.44,1737.31z"/>
				</g>
			</g>
		</g>
		<path class="st9" d="M1675.64,1473.69v274.51c0,56.32-45.59,101.91-101.91,101.91h-209.39c-3.97-6.01-7.08-12.45-9.44-19.31
			c-16.63-7.3-30.46-19.63-39.69-35.62c-8.9-15.34-12.65-32.93-11.05-50.41c-12.23-13.41-19.84-30.36-21.77-48.7
			c-1.94-17.7,1.71-35.29,10.4-50.64c-5.79-17.27-5.9-35.72-0.22-53.21c5.58-17.05,16.09-31.64,30.15-42.16
			c1.72-17.91,9.22-34.97,21.56-48.7c12.02-13.19,27.57-22.21,44.63-26.17c8.9-15.67,22.64-28.11,39.47-35.62
			c11.05-4.93,22.74-7.51,34.86-7.51c5.58,0,11.16,0.64,16.74,1.72c14.37-10.3,32.18-16.09,50.53-16.09
			c18.02,0,35.07,5.36,49.24,15.13c6.54-1.39,12.76-2.04,18.88-2.04c11.59,0,22.74,2.47,34.11,7.51
			c16.31,7.3,29.72,19.2,38.73,34.33C1672.86,1472.93,1674.25,1473.26,1675.64,1473.69z"/>
		<g>
			<g>
				<polygon class="st4" points="1668.19,1985.47 1532.13,1944.86 1396.07,1985.47 1415.76,1810.08 1456.2,1814.62 1608.07,1814.62 
					1648.5,1810.08 				"/>
			</g>
			<g>
				<g>
					<path class="st6" d="M1499.07,1889.39c-4.09,0-8.23-0.43-12.26-1.29c-14.64-3.12-27.42-11.59-35.96-23.86
						c-1.27-1.84-3.36-2.99-5.44-2.99c-3.7,0.5-6.62,0.72-9.56,0.72c-12.48,0-24.4-3.88-34.51-11.23
						c-11.9-8.63-20.07-21.34-23.01-35.76c-0.62-2.96-2.42-5.27-4.65-5.88c-14.98-4.16-27.5-13.85-35.23-27.29
						c-7.47-12.92-9.74-28.07-6.34-42.65c0.58-2.5-0.24-5.17-2.01-6.64c-11.98-9.88-19.47-23.8-21.08-39.23
						c-1.59-14.85,2.52-29.62,11.58-41.57c1.53-2.02,1.87-4.79,0.83-6.85c-6.91-13.86-8.11-29.62-3.32-44.39
						c4.75-14.57,14.78-26.53,28.25-33.7c1.77-0.94,2.92-3.14,2.82-5.34c-0.74-15.57,4.61-30.52,15.04-42.09
						c9.85-10.92,23.33-17.71,37.95-19.13c3.02-0.3,5.52-1.88,6.38-4.03c5.64-14.4,16.57-25.83,30.76-32.16
						c13.67-6.09,29.05-6.7,43.11-1.86c2.43,0.86,5.2,0.29,6.8-1.29c21.68-21.34,59.09-21.86,81.34-1c1.29,1.2,3.04,1.91,4.77,1.91
						c18.74-6.15,32.41-5.25,46.51,1c13.97,6.24,24.79,17.47,30.52,31.62c0.75,1.87,2.78,3.22,5.01,3.35
						c15.6,0.92,29.9,7.8,40.31,19.37c9.83,10.92,15.18,25.03,15.06,39.75c-0.02,2.97,1.31,5.68,3.34,6.73
						c13.75,7.15,23.98,19.21,28.79,33.97c4.61,14.24,3.66,29.53-2.7,43.08c-1.07,2.3-0.83,5.09,0.6,6.89
						c9.66,12.09,14.11,27.28,12.48,42.73c-1.57,14.87-8.64,28.45-19.95,38.25c-1.95,1.7-2.88,4.33-2.3,6.57
						c3.91,15.01,1.77,30.69-5.98,44.13c-7.49,12.95-19.49,22.47-33.82,26.82c-2.44,0.73-4.33,2.76-4.71,5.02
						c-2.56,15.34-10.89,28.79-23.43,37.9c-10.09,7.33-22.01,11.22-34.45,11.22l0,0c-2.23,0-4.45-0.13-6.66-0.38
						c-3.42,0.18-5.94,0.93-7.05,2.61c-8.54,12.92-21.62,21.84-36.8,25.06c-14.56,3.09-29.9,0.49-42.58-7.18
						c-1.79-1.07-3.89-2.03-6.91-0.11C1521.17,1886.2,1510.26,1889.39,1499.07,1889.39z"/>
				</g>
				<g>
					<path class="st4" d="M1532.13,1792.6c-69.44,0-125.91-56.49-125.91-125.91c0-69.42,56.47-125.91,125.91-125.91
						c69.43,0,125.91,56.49,125.91,125.91C1658.04,1736.12,1601.57,1792.6,1532.13,1792.6z"/>
				</g>
			</g>
		</g>
		<g>
			<path class="st6" d="M889.85,1000.59h24.17v104.47h-24.17V1000.59z"/>
			<path class="st6" d="M930.6,1094.76l8.21-18.21c8.8,6.42,21.94,10.9,34.47,10.9c14.33,0,20.15-4.78,20.15-11.19
				c0-19.55-60.74-6.12-60.74-44.92c0-17.76,14.33-32.53,44.03-32.53c13.13,0,26.56,3.13,36.26,9.25l-7.46,18.36
				c-9.7-5.52-19.7-8.21-28.96-8.21c-14.32,0-19.85,5.37-19.85,11.94c0,19.25,60.74,5.97,60.74,44.33
				c0,17.46-14.48,32.39-44.33,32.39C956.56,1106.85,939.85,1101.92,930.6,1094.76z"/>
			<path class="st6" d="M1027.47,1052.82c0-31.05,24.18-54.03,57.16-54.03c32.83,0,57.16,22.83,57.16,54.03
				c0,31.19-24.33,54.03-57.16,54.03C1051.65,1106.85,1027.47,1083.86,1027.47,1052.82z M1117.32,1052.82
				c0-19.85-14.03-33.43-32.68-33.43c-18.66,0-32.68,13.58-32.68,33.43c0,19.85,14.03,33.43,32.68,33.43
				C1103.29,1086.25,1117.32,1072.67,1117.32,1052.82z"/>
			<path class="st6" d="M1264.25,1085.36v19.7h-78.95v-15.67l40.3-38.06c9.25-8.8,10.9-14.18,10.9-19.25
				c0-8.21-5.67-12.98-16.71-12.98c-8.96,0-16.57,3.43-21.64,10.45l-17.61-11.34c8.06-11.79,22.69-19.4,41.49-19.4
				c23.28,0,38.8,11.94,38.8,30.89c0,10.15-2.83,19.4-17.46,32.98l-24.03,22.69H1264.25z"/>
			<path class="st6" d="M1351.4,1000.59v15.67l-38.81,88.8h-26.27l37.46-84.77h-53.49v-19.7H1351.4z"/>
			<path class="st6" d="M1359.19,1052.82c0-34.48,19.1-54.03,44.77-54.03c25.82,0,44.78,19.55,44.78,54.03
				c0,34.47-18.95,54.03-44.78,54.03C1378.29,1106.85,1359.19,1087.3,1359.19,1052.82z M1424.41,1052.82
				c0-23.73-8.36-33.58-20.45-33.58c-11.93,0-20.29,9.85-20.29,33.58c0,23.73,8.36,33.58,20.29,33.58
				C1416.04,1086.4,1424.41,1076.55,1424.41,1052.82z"/>
			<path class="st6" d="M1460.55,1052.82c0-34.48,19.1-54.03,44.77-54.03c25.82,0,44.78,19.55,44.78,54.03
				c0,34.47-18.96,54.03-44.78,54.03C1479.65,1106.85,1460.55,1087.3,1460.55,1052.82z M1525.77,1052.82
				c0-23.73-8.36-33.58-20.45-33.58c-11.93,0-20.29,9.85-20.29,33.58c0,23.73,8.36,33.58,20.29,33.58
				C1517.41,1086.4,1525.77,1076.55,1525.77,1052.82z"/>
			<path class="st6" d="M1595.75,1000.59v104.47h-24.18v-85.07h-12.75v-19.4H1595.75z"/>
		</g>
	</g>
	<g>
		<path class="st3" d="M1704.22,1548.01c0.07,0.03,0.14,0.05,0.21,0.08c2.54,0.95,5.58,1.49,8.74,1.76
			c5.48,0.47,11.23,0.13,15.48-0.28c4.99,3.34,7.59,8.31,8.38,14.51c-6.19,5.71-12.62,8.2-19.73,10.51
			c-3.22,1.05-6.27,1.79-8.94,2.29c-2.08,0.39-3.92,0.62-5.42,0.73C1693.81,1578.23,1693.51,1543.87,1704.22,1548.01z"/>
		<path class="st0" d="M1724.36,1547.62c0,0,166.22-79.64,162.72-169.95c28.38,8.25,51.24,43.53,42.35,89.1
			c-16.37,83.9-169.37,104.79-199.14,104.6C1722.46,1571.32,1724.36,1547.62,1724.36,1547.62z"/>
	</g>
</g>
</svg>
