<svg width="4400" height="2565" xmlns="http://www.w3.org/2000/svg" xmlns:xlink="http://www.w3.org/1999/xlink" xml:space="preserve" overflow="hidden"><defs><filter id="fx0" x="-10%" y="-10%" width="120%" height="120%" filterUnits="userSpaceOnUse" primitiveUnits="userSpaceOnUse"><feComponentTransfer color-interpolation-filters="sRGB"><feFuncR type="discrete" tableValues="0.431373 0.431373"/><feFuncG type="discrete" tableValues="0.454902 0.454902"/><feFuncB type="discrete" tableValues="0.478431 0.478431"/><feFuncA type="linear" slope="0.431373" intercept="0"/></feComponentTransfer><feGaussianBlur stdDeviation="2.35914 2.35914"/></filter><filter id="fx1" x="-10%" y="-10%" width="120%" height="120%" filterUnits="userSpaceOnUse" primitiveUnits="userSpaceOnUse"><feComponentTransfer color-interpolation-filters="sRGB"><feFuncR type="discrete" tableValues="0.431373 0.431373"/><feFuncG type="discrete" tableValues="0.454902 0.454902"/><feFuncB type="discrete" tableValues="0.478431 0.478431"/><feFuncA type="linear" slope="0.431373" intercept="0"/></feComponentTransfer><feGaussianBlur stdDeviation="2.35914 2.35914"/></filter><clipPath id="clip2"><rect x="0" y="-45" width="4400" height="2565"/></clipPath><linearGradient x1="1859.32" y1="208.999" x2="1859.32" y2="506.786" gradientUnits="userSpaceOnUse" spreadMethod="reflect" id="fill3"><stop offset="0" stop-color="#BBC5E3"/><stop offset="0.5" stop-color="#AEBBE0"/><stop offset="1" stop-color="#97A4CA"/></linearGradient><linearGradient x1="1358.26" y1="456.993" x2="1358.26" y2="1096.22" gradientUnits="userSpaceOnUse" spreadMethod="reflect" id="fill4"><stop offset="0" stop-color="#BBC5E3"/><stop offset="0.5" stop-color="#AEBBE0"/><stop offset="1" stop-color="#97A4CA"/></linearGradient><linearGradient x1="1239.15" y1="1084.93" x2="1239.15" y2="1799" gradientUnits="userSpaceOnUse" spreadMethod="reflect" id="fill5"><stop offset="0" stop-color="#BBC5E3"/><stop offset="0.5" stop-color="#AEBBE0"/><stop offset="1" stop-color="#97A4CA"/></linearGradient><linearGradient x1="1570.85" y1="1766.5" x2="1570.85" y2="2265.08" gradientUnits="userSpaceOnUse" spreadMethod="reflect" id="fill6"><stop offset="0" stop-color="#BBC5E3"/><stop offset="0.5" stop-color="#AEBBE0"/><stop offset="1" stop-color="#97A4CA"/></linearGradient><linearGradient x1="2200" y1="2204" x2="2200" y2="2329" gradientUnits="userSpaceOnUse" spreadMethod="reflect" id="fill7"><stop offset="0" stop-color="#BBC5E3"/><stop offset="0.5" stop-color="#AEBBE0"/><stop offset="1" stop-color="#97A4CA"/></linearGradient><linearGradient x1="2829.15" y1="1766.5" x2="2829.15" y2="2265.08" gradientUnits="userSpaceOnUse" spreadMethod="reflect" id="fill8"><stop offset="0" stop-color="#BBC5E3"/><stop offset="0.5" stop-color="#AEBBE0"/><stop offset="1" stop-color="#97A4CA"/></linearGradient><linearGradient x1="3160.85" y1="1084.93" x2="3160.85" y2="1799" gradientUnits="userSpaceOnUse" spreadMethod="reflect" id="fill9"><stop offset="0" stop-color="#BBC5E3"/><stop offset="0.5" stop-color="#AEBBE0"/><stop offset="1" stop-color="#97A4CA"/></linearGradient><linearGradient x1="3041.74" y1="456.992" x2="3041.74" y2="1096.22" gradientUnits="userSpaceOnUse" spreadMethod="reflect" id="fill10"><stop offset="0" stop-color="#BBC5E3"/><stop offset="0.5" stop-color="#AEBBE0"/><stop offset="1" stop-color="#97A4CA"/></linearGradient><linearGradient x1="2540.68" y1="209" x2="2540.68" y2="506.786" gradientUnits="userSpaceOnUse" spreadMethod="reflect" id="fill11"><stop offset="0" stop-color="#BBC5E3"/><stop offset="0.5" stop-color="#AEBBE0"/><stop offset="1" stop-color="#97A4CA"/></linearGradient><clipPath id="clip12"><rect x="-2" y="-2" width="461" height="111"/></clipPath><clipPath id="clip13"><rect x="0" y="0" width="456" height="107"/></clipPath><clipPath id="clip14"><rect x="-2" y="-2" width="437" height="129"/></clipPath><clipPath id="clip15"><rect x="0" y="0" width="432" height="125"/></clipPath><linearGradient x1="2200" y1="-45" x2="2200" y2="497" gradientUnits="userSpaceOnUse" spreadMethod="reflect" id="fill16"><stop offset="0" stop-color="#6083CB"/><stop offset="0.5" stop-color="#3E70CA"/><stop offset="1" stop-color="#2E61BA"/></linearGradient><linearGradient x1="2870.5" y1="199" x2="2870.5" y2="741" gradientUnits="userSpaceOnUse" spreadMethod="reflect" id="fill17"><stop offset="0" stop-color="#6083CB"/><stop offset="0.5" stop-color="#3E70CA"/><stop offset="1" stop-color="#2E61BA"/></linearGradient><linearGradient x1="3227.5" y1="817" x2="3227.5" y2="1359" gradientUnits="userSpaceOnUse" spreadMethod="reflect" id="fill18"><stop offset="0" stop-color="#6083CB"/><stop offset="0.5" stop-color="#3E70CA"/><stop offset="1" stop-color="#2E61BA"/></linearGradient><linearGradient x1="3103.5" y1="1520" x2="3103.5" y2="2062" gradientUnits="userSpaceOnUse" spreadMethod="reflect" id="fill19"><stop offset="0" stop-color="#6083CB"/><stop offset="0.5" stop-color="#3E70CA"/><stop offset="1" stop-color="#2E61BA"/></linearGradient><linearGradient x1="2556.5" y1="1978" x2="2556.5" y2="2520" gradientUnits="userSpaceOnUse" spreadMethod="reflect" id="fill20"><stop offset="0" stop-color="#6083CB"/><stop offset="0.5" stop-color="#3E70CA"/><stop offset="1" stop-color="#2E61BA"/></linearGradient><linearGradient x1="1843" y1="1978" x2="1843" y2="2520" gradientUnits="userSpaceOnUse" spreadMethod="reflect" id="fill21"><stop offset="0" stop-color="#6083CB"/><stop offset="0.5" stop-color="#3E70CA"/><stop offset="1" stop-color="#2E61BA"/></linearGradient><linearGradient x1="1296.5" y1="1520" x2="1296.5" y2="2062" gradientUnits="userSpaceOnUse" spreadMethod="reflect" id="fill22"><stop offset="0" stop-color="#6083CB"/><stop offset="0.5" stop-color="#3E70CA"/><stop offset="1" stop-color="#2E61BA"/></linearGradient><linearGradient x1="1172.5" y1="817" x2="1172.5" y2="1359" gradientUnits="userSpaceOnUse" spreadMethod="reflect" id="fill23"><stop offset="0" stop-color="#6083CB"/><stop offset="0.5" stop-color="#3E70CA"/><stop offset="1" stop-color="#2E61BA"/></linearGradient><linearGradient x1="1529.5" y1="199" x2="1529.5" y2="741" gradientUnits="userSpaceOnUse" spreadMethod="reflect" id="fill24"><stop offset="0" stop-color="#6083CB"/><stop offset="0.5" stop-color="#3E70CA"/><stop offset="1" stop-color="#2E61BA"/></linearGradient></defs><g clip-path="url(#clip2)" transform="matrix(1 0 0 1 0 45)"><path d="M1518.65 456.992C1709.55 296.804 1950.79 208.999 2200 208.999L2200 274C1966.07 274 1739.62 356.421 1560.43 506.786Z" fill="url(#fill3)" fill-rule="evenodd"/><path d="M1156.1 1084.93C1199.38 839.511 1327.74 617.182 1518.65 456.993L1560.42 506.786C1381.23 657.151 1260.74 865.847 1220.11 1096.22Z" fill="url(#fill4)" fill-rule="evenodd"/><path d="M1282.01 1799C1157.41 1583.18 1112.83 1330.36 1156.1 1084.93L1220.11 1096.22C1179.49 1326.59 1221.34 1563.91 1338.3 1766.5Z" fill="url(#fill5)" fill-rule="evenodd"/><path d="M1837.46 2265.08C1603.28 2179.84 1406.62 2014.82 1282.01 1799L1338.3 1766.5C1455.27 1969.09 1639.87 2123.99 1859.69 2204Z" fill="url(#fill6)" fill-rule="evenodd"/><path d="M2562.54 2265.08C2328.36 2350.31 2071.64 2350.31 1837.46 2265.08L1859.69 2204C2079.51 2284.01 2320.49 2284.01 2540.31 2204Z" fill="url(#fill7)" fill-rule="evenodd"/><path d="M3117.99 1799C2993.38 2014.82 2796.72 2179.84 2562.54 2265.08L2540.31 2204C2760.13 2123.99 2944.73 1969.09 3061.7 1766.5Z" fill="url(#fill8)" fill-rule="evenodd"/><path d="M3243.9 1084.93C3287.17 1330.36 3242.59 1583.18 3117.99 1799L3061.7 1766.5C3178.66 1563.91 3220.5 1326.59 3179.88 1096.22Z" fill="url(#fill9)" fill-rule="evenodd"/><path d="M2881.35 456.992C3072.26 617.181 3200.62 839.51 3243.9 1084.93L3179.89 1096.22C3139.26 865.847 3018.77 657.151 2839.58 506.785Z" fill="url(#fill10)" fill-rule="evenodd"/><path d="M2200 209C2449.21 209 2690.45 296.805 2881.35 456.993L2839.58 506.786C2660.38 356.42 2433.93 274 2200 274Z" fill="url(#fill11)" fill-rule="evenodd"/><path d="M1811.5 1269.5C1811.5 1059.08 1985.66 888.5 2200.5 888.5 2415.34 888.5 2589.5 1059.08 2589.5 1269.5 2589.5 1479.92 2415.34 1650.5 2200.5 1650.5 1985.66 1650.5 1811.5 1479.92 1811.5 1269.5Z" stroke="#4472C4" stroke-width="3.4375" stroke-linejoin="round" stroke-miterlimit="10" fill="none" fill-rule="evenodd"/><g clip-path="url(#clip12)" filter="url(#fx0)" transform="translate(1976 1143)"><g clip-path="url(#clip13)"><path d="M312.762 44.7599C309.693 44.7599 307.055 45.3016 304.847 46.3849 302.64 47.4682 300.822 48.9995 299.392 50.9786 297.963 52.9578 296.901 55.3016 296.208 58.0099 295.514 60.7182 295.167 63.6766 295.167 66.8849 295.167 69.9682 295.451 72.8641 296.019 75.5724 296.586 78.2807 297.532 80.6453 298.857 82.6661 300.181 84.687 301.957 86.2911 304.185 87.4786 306.413 88.6661 309.188 89.2599 312.51 89.2599 315.537 89.2599 318.165 88.7182 320.393 87.6349 322.621 86.5516 324.45 85.0307 325.879 83.0724 327.309 81.1141 328.36 78.7807 329.033 76.0724 329.706 73.3641 330.042 70.3849 330.042 67.1349 330.042 64.0932 329.758 61.2182 329.191 58.5099 328.623 55.8016 327.687 53.4266 326.384 51.3849 325.081 49.3432 323.315 47.7286 321.087 46.5411 318.858 45.3536 316.083 44.7599 312.762 44.7599ZM114.139 44.1974C111.582 44.1974 109.339 44.6766 107.41 45.6349 105.482 46.5932 103.868 47.8641 102.568 49.4474 101.268 51.0307 100.262 52.8745 99.5494 54.9786 98.8369 57.0828 98.4386 59.2807 98.3546 61.5724L129.042 61.5724C129.167 56.1557 127.962 51.9057 125.426 48.8224 122.89 45.7391 119.128 44.1974 114.139 44.1974ZM196.292 37.0099C197.459 37.0099 198.396 37.0411 199.105 37.1036 199.813 37.1661 200.355 37.2703 200.73 37.4161 201.105 37.562 201.375 37.7703 201.542 38.0411 201.709 38.312 201.855 38.6349 201.98 39.0099L215.542 85.3849 215.667 85.9474 215.792 85.3849 228.23 39.0099C228.313 38.6349 228.448 38.312 228.636 38.0411 228.823 37.7703 229.105 37.562 229.48 37.4161 229.855 37.2703 230.365 37.1661 231.011 37.1036 231.657 37.0411 232.5 37.0099 233.542 37.0099 234.542 37.0099 235.365 37.0411 236.011 37.1036 236.657 37.1661 237.167 37.2703 237.542 37.4161 237.917 37.562 238.188 37.7599 238.355 38.0099 238.521 38.2599 238.646 38.5516 238.73 38.8849L252.167 85.3849 252.292 85.9474 252.355 85.3849 265.73 39.0099C265.813 38.6349 265.948 38.312 266.136 38.0411 266.323 37.7703 266.615 37.562 267.011 37.4161 267.407 37.2703 267.948 37.1661 268.636 37.1036 269.323 37.0411 270.209 37.0099 271.292 37.0099 272.292 37.0099 273.094 37.0307 273.698 37.0724 274.302 37.1141 274.782 37.2182 275.136 37.3849 275.49 37.5516 275.74 37.7391 275.886 37.9474 276.032 38.1557 276.105 38.4474 276.105 38.8224 276.105 39.1141 276.063 39.4682 275.98 39.8849 275.896 40.3016 275.75 40.8224 275.542 41.4474L258.98 94.8849C258.855 95.3432 258.657 95.7182 258.386 96.0099 258.115 96.3016 257.74 96.5307 257.261 96.6974 256.782 96.8641 256.125 96.9786 255.292 97.0411 254.459 97.1036 253.417 97.1349 252.167 97.1349 250.875 97.1349 249.792 97.0932 248.917 97.0099 248.042 96.9266 247.344 96.8016 246.823 96.6349 246.303 96.4682 245.917 96.2391 245.667 95.9474 245.417 95.6557 245.23 95.3016 245.105 94.8849L233.292 54.0724 233.167 53.5099 233.042 54.0724 222.105 94.8849C221.98 95.3432 221.782 95.7182 221.511 96.0099 221.24 96.3016 220.834 96.5307 220.292 96.6974 219.75 96.8641 219.053 96.9786 218.198 97.0411 217.344 97.1036 216.292 97.1349 215.042 97.1349 213.75 97.1349 212.698 97.0932 211.886 97.0099 211.073 96.9266 210.407 96.8016 209.886 96.6349 209.365 96.4682 208.98 96.2391 208.73 95.9474 208.48 95.6557 208.292 95.3016 208.167 94.8849L191.73 41.4474C191.521 40.8224 191.375 40.3016 191.292 39.8849 191.209 39.4682 191.167 39.1141 191.167 38.8224 191.167 38.4474 191.25 38.1453 191.417 37.9161 191.584 37.687 191.865 37.4995 192.261 37.3536 192.657 37.2078 193.188 37.1141 193.855 37.0724 194.521 37.0307 195.334 37.0099 196.292 37.0099ZM380.105 36.1349C380.646 36.1349 381.261 36.1661 381.948 36.2286 382.636 36.2911 383.355 36.4057 384.105 36.5724 384.855 36.7391 385.532 36.9266 386.136 37.1349 386.74 37.3432 387.167 37.5516 387.417 37.7599 387.667 37.9682 387.834 38.1661 387.917 38.3536 388 38.5411 388.073 38.7807 388.136 39.0724 388.198 39.3641 388.24 39.7911 388.261 40.3536 388.282 40.9161 388.292 41.6766 388.292 42.6349 388.292 43.5516 388.271 44.3224 388.23 44.9474 388.188 45.5724 388.105 46.062 387.98 46.4161 387.855 46.7703 387.698 47.0411 387.511 47.2286 387.323 47.4161 387.063 47.5099 386.73 47.5099 386.396 47.5099 385.99 47.4161 385.511 47.2286 385.032 47.0411 384.49 46.8536 383.886 46.6661 383.282 46.4786 382.605 46.3016 381.855 46.1349 381.105 45.9682 380.292 45.8849 379.417 45.8849 378.375 45.8849 377.355 46.0932 376.355 46.5099 375.355 46.9266 374.302 47.6141 373.198 48.5724 372.094 49.5307 370.938 50.8016 369.73 52.3849 368.521 53.9682 367.188 55.9057 365.73 58.1974L365.73 95.1974C365.73 95.5307 365.646 95.812 365.48 96.0411 365.313 96.2703 365.042 96.4682 364.667 96.6349 364.292 96.8016 363.771 96.9266 363.105 97.0099 362.438 97.0932 361.584 97.1349 360.542 97.1349 359.542 97.1349 358.709 97.0932 358.042 97.0099 357.375 96.9266 356.844 96.8016 356.448 96.6349 356.052 96.4682 355.782 96.2703 355.636 96.0411 355.49 95.812 355.417 95.5307 355.417 95.1974L355.417 38.9474C355.417 38.6141 355.48 38.3328 355.605 38.1036 355.73 37.8745 355.98 37.6661 356.355 37.4786 356.73 37.2911 357.209 37.1661 357.792 37.1036 358.375 37.0411 359.146 37.0099 360.105 37.0099 361.021 37.0099 361.782 37.0411 362.386 37.1036 362.99 37.1661 363.459 37.2911 363.792 37.4786 364.125 37.6661 364.365 37.8745 364.511 38.1036 364.657 38.3328 364.73 38.6141 364.73 38.9474L364.73 47.1349C366.271 44.8849 367.719 43.0516 369.073 41.6349 370.427 40.2182 371.709 39.1036 372.917 38.2911 374.125 37.4786 375.323 36.9161 376.511 36.6036 377.698 36.2911 378.896 36.1349 380.105 36.1349ZM313.167 36.1349C317.792 36.1349 321.823 36.8224 325.261 38.1974 328.698 39.5724 331.563 41.5724 333.855 44.1974 336.146 46.8224 337.865 50.0099 339.011 53.7599 340.157 57.5099 340.73 61.7391 340.73 66.4474 340.73 71.0307 340.125 75.2495 338.917 79.1036 337.709 82.9578 335.907 86.2807 333.511 89.0724 331.115 91.8641 328.115 94.0411 324.511 95.6036 320.907 97.1661 316.73 97.9474 311.98 97.9474 307.355 97.9474 303.323 97.2599 299.886 95.8849 296.448 94.5099 293.584 92.5099 291.292 89.8849 289 87.2599 287.292 84.0724 286.167 80.3224 285.042 76.5724 284.48 72.3224 284.48 67.5724 284.48 62.9891 285.073 58.7703 286.261 54.9161 287.448 51.062 289.24 47.7391 291.636 44.9474 294.032 42.1557 297.021 39.9891 300.605 38.4474 304.188 36.9057 308.375 36.1349 313.167 36.1349ZM114.667 36.1349C119.084 36.1349 122.844 36.8432 125.948 38.2599 129.053 39.6766 131.605 41.5828 133.605 43.9786 135.605 46.3745 137.073 49.187 138.011 52.4161 138.948 55.6453 139.417 59.0932 139.417 62.7599L139.417 64.6349C139.417 66.2599 139.009 67.4161 138.193 68.1036 137.377 68.7911 136.445 69.1349 135.399 69.1349L98.3546 69.1349C98.3546 72.2599 98.6686 75.0724 99.2965 77.5724 99.9244 80.0724 100.971 82.2182 102.437 84.0099 103.902 85.8016 105.807 87.1766 108.152 88.1349 110.497 89.0932 113.365 89.5724 116.756 89.5724 119.436 89.5724 121.822 89.3536 123.916 88.9161 126.009 88.4786 127.82 87.9891 129.348 87.4474 130.877 86.9057 132.133 86.4161 133.117 85.9786 134.101 85.5411 134.844 85.3224 135.347 85.3224 135.64 85.3224 135.901 85.3953 136.131 85.5411 136.362 85.687 136.539 85.9057 136.665 86.1974 136.791 86.4891 136.885 86.8953 136.948 87.4161 137.011 87.937 137.042 88.5724 137.042 89.3224 137.042 89.8641 137.021 90.3328 136.98 90.7286 136.938 91.1245 136.886 91.4786 136.823 91.7911 136.761 92.1036 136.657 92.3849 136.511 92.6349 136.365 92.8849 136.178 93.1245 135.948 93.3536 135.719 93.5828 135.042 93.9578 133.917 94.4786 132.792 94.9995 131.334 95.5099 129.542 96.0099 127.75 96.5099 125.678 96.9578 123.323 97.3536 120.969 97.7495 118.459 97.9474 115.792 97.9474 111.167 97.9474 107.115 97.3016 103.636 96.0099 100.157 94.7182 97.2296 92.8016 94.8546 90.2599 92.4796 87.7182 90.688 84.5307 89.4796 80.6974 88.2713 76.8641 87.6671 72.4057 87.6671 67.3224 87.6671 62.4891 88.2921 58.1453 89.5421 54.2911 90.7921 50.437 92.5942 47.1661 94.9484 44.4786 97.3025 41.7911 100.146 39.7286 103.48 38.2911 106.813 36.8536 110.542 36.1349 114.667 36.1349ZM161.98 21.9474C163.021 21.9474 163.875 21.9891 164.542 22.0724 165.209 22.1557 165.73 22.2911 166.105 22.4786 166.48 22.6661 166.75 22.8849 166.917 23.1349 167.084 23.3849 167.167 23.6557 167.167 23.9474L167.167 37.3224 181.605 37.3224C181.938 37.3224 182.23 37.3953 182.48 37.5411 182.73 37.687 182.948 37.937 183.136 38.2911 183.323 38.6453 183.459 39.0932 183.542 39.6349 183.625 40.1766 183.667 40.8432 183.667 41.6349 183.667 43.1349 183.48 44.2182 183.105 44.8849 182.73 45.5516 182.23 45.8849 181.605 45.8849L167.167 45.8849 167.167 77.2599C167.167 81.1349 167.74 84.062 168.886 86.0411 170.032 88.0203 172.084 89.0099 175.042 89.0099 176 89.0099 176.855 88.9161 177.605 88.7286 178.355 88.5411 179.021 88.3432 179.605 88.1349 180.188 87.9266 180.688 87.7286 181.105 87.5411 181.521 87.3536 181.896 87.2599 182.23 87.2599 182.438 87.2599 182.636 87.312 182.823 87.4161 183.011 87.5203 183.157 87.7182 183.261 88.0099 183.365 88.3016 183.459 88.6974 183.542 89.1974 183.625 89.6974 183.667 90.3224 183.667 91.0724 183.667 92.2807 183.584 93.2391 183.417 93.9474 183.25 94.6557 183 95.1766 182.667 95.5099 182.334 95.8432 181.834 96.1557 181.167 96.4474 180.5 96.7391 179.74 96.9786 178.886 97.1661 178.032 97.3536 177.125 97.5099 176.167 97.6349 175.209 97.7599 174.25 97.8224 173.292 97.8224 170.375 97.8224 167.875 97.437 165.792 96.6661 163.709 95.8953 162 94.7286 160.667 93.1661 159.334 91.6036 158.365 89.6245 157.761 87.2286 157.157 84.8328 156.855 82.0099 156.855 78.7599L156.855 45.8849 148.98 45.8849C148.355 45.8849 147.855 45.5516 147.48 44.8849 147.105 44.2182 146.917 43.1349 146.917 41.6349 146.917 40.8432 146.969 40.1766 147.073 39.6349 147.178 39.0932 147.313 38.6453 147.48 38.2911 147.646 37.937 147.865 37.687 148.136 37.5411 148.407 37.3953 148.709 37.3224 149.042 37.3224L156.855 37.3224 156.855 23.9474C156.855 23.6557 156.928 23.3849 157.073 23.1349 157.219 22.8849 157.49 22.6661 157.886 22.4786 158.282 22.2911 158.813 22.1557 159.48 22.0724 160.146 21.9891 160.98 21.9474 161.98 21.9474ZM65.4532 15.6974C66.4207 15.6974 67.2561 15.7391 67.9596 15.8224 68.663 15.9057 69.2127 16.0411 69.6085 16.2286 70.0044 16.4161 70.2902 16.6349 70.4659 16.8849 70.6417 17.1349 70.7296 17.4057 70.7296 17.6974L70.7296 92.3224C70.7296 93.1557 70.5896 93.8641 70.3097 94.4474 70.0297 95.0307 69.6635 95.5099 69.2111 95.8849 68.7586 96.2599 68.2522 96.5307 67.692 96.6974 67.1318 96.8641 66.5714 96.9474 66.0109 96.9474L62.4562 96.9474C61.3357 96.9474 60.3553 96.8328 59.5148 96.6036 58.6743 96.3745 57.8771 95.9578 57.1232 95.3536 56.3693 94.7495 55.6152 93.9266 54.861 92.8849 54.1067 91.8432 53.3064 90.5099 52.4601 88.8849L27.7882 42.8849C26.4985 40.5099 25.1985 38.0203 23.8883 35.4161 22.5781 32.812 21.3585 30.2807 20.2296 27.8224L20.1046 27.8224C20.188 30.8224 20.2505 33.8849 20.2921 37.0099 20.3338 40.1349 20.3546 43.2391 20.3546 46.3224L20.3546 95.1349C20.3546 95.4266 20.2667 95.7078 20.0909 95.9786 19.9152 96.2495 19.6185 96.4578 19.2008 96.6036 18.7832 96.7495 18.2335 96.8745 17.5519 96.9786 16.8702 97.0828 16.0018 97.1349 14.9464 97.1349 13.8911 97.1349 13.0227 97.0828 12.3414 96.9786 11.6601 96.8745 11.1215 96.7495 10.7257 96.6036 10.3299 96.4578 10.0441 96.2495 9.86829 95.9786 9.69251 95.7078 9.60462 95.4266 9.60462 95.1349L9.60462 20.5099C9.60462 18.8432 10.0778 17.6557 11.0241 16.9474 11.9703 16.2391 13.0024 15.8849 14.1202 15.8849L19.4103 15.8849C20.657 15.8849 21.6998 15.9891 22.5387 16.1974 23.3776 16.4057 24.1302 16.7495 24.7965 17.2286 25.4629 17.7078 26.1079 18.3745 26.7316 19.2286 27.3553 20.0828 28.0096 21.1557 28.6945 22.4474L47.6613 57.9474C48.8292 60.1141 49.9568 62.2286 51.0441 64.2911 52.1313 66.3536 53.1783 68.3849 54.1852 70.3849 55.192 72.3849 56.1886 74.3536 57.1749 76.2911 58.1613 78.2286 59.1378 80.1766 60.1046 82.1349L60.1671 82.1349C60.0838 78.8432 60.0317 75.4161 60.0109 71.8536 59.99 68.2911 59.9796 64.8641 59.9796 61.5724L59.9796 17.6974C59.9796 17.4057 60.0675 17.1349 60.2433 16.8849 60.4191 16.6349 60.7158 16.4161 61.1334 16.2286 61.5511 16.0411 62.1007 15.9057 62.7824 15.8224 63.464 15.7391 64.3543 15.6974 65.4532 15.6974ZM405.542 9.6974C406.584 9.6974 407.438 9.73906 408.105 9.8224 408.771 9.90573 409.292 10.0307 409.667 10.1974 410.042 10.3641 410.313 10.5724 410.48 10.8224 410.646 11.0724 410.73 11.3641 410.73 11.6974L410.73 62.5724 431.98 39.1974C432.313 38.7807 432.667 38.437 433.042 38.1661 433.417 37.8953 433.865 37.6661 434.386 37.4786 434.907 37.2911 435.521 37.1661 436.23 37.1036 436.938 37.0411 437.792 37.0099 438.792 37.0099 439.834 37.0099 440.709 37.0411 441.417 37.1036 442.125 37.1661 442.698 37.2703 443.136 37.4161 443.573 37.562 443.886 37.7495 444.073 37.9786 444.261 38.2078 444.355 38.5099 444.355 38.8849 444.355 39.3849 444.219 39.8849 443.948 40.3849 443.677 40.8849 443.23 41.4682 442.605 42.1349L422.23 62.5099 445.105 92.1974C445.646 92.9057 446.032 93.4786 446.261 93.9161 446.49 94.3536 446.605 94.7599 446.605 95.1349 446.605 95.4682 446.521 95.7599 446.355 96.0099 446.188 96.2599 445.907 96.4682 445.511 96.6349 445.115 96.8016 444.563 96.9266 443.855 97.0099 443.146 97.0932 442.25 97.1349 441.167 97.1349 440.042 97.1349 439.115 97.1036 438.386 97.0411 437.657 96.9786 437.042 96.8745 436.542 96.7286 436.042 96.5828 435.636 96.3745 435.323 96.1036 435.011 95.8328 434.73 95.5099 434.48 95.1349L410.73 64.0099 410.73 95.1974C410.73 95.5307 410.646 95.812 410.48 96.0411 410.313 96.2703 410.042 96.4682 409.667 96.6349 409.292 96.8016 408.771 96.9266 408.105 97.0099 407.438 97.0932 406.584 97.1349 405.542 97.1349 404.542 97.1349 403.709 97.0932 403.042 97.0099 402.375 96.9266 401.844 96.8016 401.448 96.6349 401.052 96.4682 400.782 96.2703 400.636 96.0411 400.49 95.812 400.417 95.5307 400.417 95.1974L400.417 11.6974C400.417 11.3641 400.49 11.0724 400.636 10.8224 400.782 10.5724 401.052 10.3641 401.448 10.1974 401.844 10.0307 402.375 9.90573 403.042 9.8224 403.709 9.73906 404.542 9.6974 405.542 9.6974Z" stroke="#2B79DB" stroke-linejoin="round" stroke-miterlimit="10" fill="#4472C4" fill-rule="evenodd"/></g></g><path d="M2288.76 1182.97C2285.69 1182.97 2283.05 1183.52 2280.85 1184.6 2278.64 1185.68 2276.82 1187.21 2275.39 1189.19 2273.96 1191.17 2272.9 1193.52 2272.21 1196.22 2271.51 1198.93 2271.17 1201.89 2271.17 1205.1 2271.17 1208.18 2271.45 1211.08 2272.02 1213.79 2272.59 1216.5 2273.53 1218.86 2274.86 1220.88 2276.18 1222.9 2277.96 1224.51 2280.19 1225.69 2282.41 1226.88 2285.19 1227.47 2288.51 1227.47 2291.54 1227.47 2294.17 1226.93 2296.39 1225.85 2298.62 1224.77 2300.45 1223.25 2301.88 1221.29 2303.31 1219.33 2304.36 1217 2305.03 1214.29 2305.71 1211.58 2306.04 1208.6 2306.04 1205.35 2306.04 1202.31 2305.76 1199.43 2305.19 1196.72 2304.62 1194.02 2303.69 1191.64 2302.38 1189.6 2301.08 1187.56 2299.31 1185.94 2297.09 1184.76 2294.86 1183.57 2292.08 1182.97 2288.76 1182.97ZM2090.14 1182.41C2087.58 1182.41 2085.34 1182.89 2083.41 1183.85 2081.48 1184.81 2079.87 1186.08 2078.57 1187.66 2077.27 1189.25 2076.26 1191.09 2075.55 1193.19 2074.84 1195.3 2074.44 1197.5 2074.35 1199.79L2105.04 1199.79C2105.17 1194.37 2103.96 1190.12 2101.43 1187.04 2098.89 1183.95 2095.13 1182.41 2090.14 1182.41ZM2172.29 1175.22C2173.46 1175.22 2174.4 1175.26 2175.1 1175.32 2175.81 1175.38 2176.35 1175.49 2176.73 1175.63 2177.1 1175.78 2177.38 1175.99 2177.54 1176.26 2177.71 1176.53 2177.85 1176.85 2177.98 1177.22L2191.54 1223.6 2191.67 1224.16 2191.79 1223.6 2204.23 1177.22C2204.31 1176.85 2204.45 1176.53 2204.64 1176.26 2204.82 1175.99 2205.1 1175.78 2205.48 1175.63 2205.85 1175.49 2206.36 1175.38 2207.01 1175.32 2207.66 1175.26 2208.5 1175.22 2209.54 1175.22 2210.54 1175.22 2211.36 1175.26 2212.01 1175.32 2212.66 1175.38 2213.17 1175.49 2213.54 1175.63 2213.92 1175.78 2214.19 1175.97 2214.35 1176.22 2214.52 1176.47 2214.65 1176.77 2214.73 1177.1L2228.17 1223.6 2228.29 1224.16 2228.35 1223.6 2241.73 1177.22C2241.81 1176.85 2241.95 1176.53 2242.14 1176.26 2242.32 1175.99 2242.61 1175.78 2243.01 1175.63 2243.41 1175.49 2243.95 1175.38 2244.64 1175.32 2245.32 1175.26 2246.21 1175.22 2247.29 1175.22 2248.29 1175.22 2249.09 1175.25 2249.7 1175.29 2250.3 1175.33 2250.78 1175.43 2251.14 1175.6 2251.49 1175.77 2251.74 1175.95 2251.89 1176.16 2252.03 1176.37 2252.1 1176.66 2252.1 1177.04 2252.1 1177.33 2252.06 1177.68 2251.98 1178.1 2251.9 1178.52 2251.75 1179.04 2251.54 1179.66L2234.98 1233.1C2234.85 1233.56 2234.66 1233.93 2234.39 1234.22 2234.11 1234.52 2233.74 1234.75 2233.26 1234.91 2232.78 1235.08 2232.13 1235.19 2231.29 1235.26 2230.46 1235.32 2229.42 1235.35 2228.17 1235.35 2226.88 1235.35 2225.79 1235.31 2224.92 1235.22 2224.04 1235.14 2223.34 1235.02 2222.82 1234.85 2222.3 1234.68 2221.92 1234.45 2221.67 1234.16 2221.42 1233.87 2221.23 1233.52 2221.1 1233.1L2209.29 1192.29 2209.17 1191.72 2209.04 1192.29 2198.1 1233.1C2197.98 1233.56 2197.78 1233.93 2197.51 1234.22 2197.24 1234.52 2196.83 1234.75 2196.29 1234.91 2195.75 1235.08 2195.05 1235.19 2194.2 1235.26 2193.34 1235.32 2192.29 1235.35 2191.04 1235.35 2189.75 1235.35 2188.7 1235.31 2187.89 1235.22 2187.07 1235.14 2186.41 1235.02 2185.89 1234.85 2185.36 1234.68 2184.98 1234.45 2184.73 1234.16 2184.48 1233.87 2184.29 1233.52 2184.17 1233.1L2167.73 1179.66C2167.52 1179.04 2167.38 1178.52 2167.29 1178.1 2167.21 1177.68 2167.17 1177.33 2167.17 1177.04 2167.17 1176.66 2167.25 1176.36 2167.42 1176.13 2167.58 1175.9 2167.86 1175.71 2168.26 1175.57 2168.66 1175.42 2169.19 1175.33 2169.85 1175.29 2170.52 1175.25 2171.33 1175.22 2172.29 1175.22ZM2356.1 1174.35C2356.65 1174.35 2357.26 1174.38 2357.95 1174.44 2358.64 1174.51 2359.35 1174.62 2360.1 1174.79 2360.85 1174.95 2361.53 1175.14 2362.14 1175.35 2362.74 1175.56 2363.17 1175.77 2363.42 1175.97 2363.67 1176.18 2363.83 1176.38 2363.92 1176.57 2364 1176.76 2364.07 1177 2364.14 1177.29 2364.2 1177.58 2364.24 1178.01 2364.26 1178.57 2364.28 1179.13 2364.29 1179.89 2364.29 1180.85 2364.29 1181.77 2364.27 1182.54 2364.23 1183.16 2364.19 1183.79 2364.1 1184.28 2363.98 1184.63 2363.85 1184.99 2363.7 1185.26 2363.51 1185.44 2363.32 1185.63 2363.06 1185.72 2362.73 1185.72 2362.4 1185.72 2361.99 1185.63 2361.51 1185.44 2361.03 1185.26 2360.49 1185.07 2359.89 1184.88 2359.28 1184.69 2358.6 1184.52 2357.85 1184.35 2357.1 1184.18 2356.29 1184.1 2355.42 1184.1 2354.38 1184.1 2353.35 1184.31 2352.35 1184.72 2351.35 1185.14 2350.3 1185.83 2349.2 1186.79 2348.09 1187.75 2346.94 1189.02 2345.73 1190.6 2344.52 1192.18 2343.19 1194.12 2341.73 1196.41L2341.73 1233.41C2341.73 1233.75 2341.65 1234.03 2341.48 1234.26 2341.31 1234.49 2341.04 1234.68 2340.67 1234.85 2340.29 1235.02 2339.77 1235.14 2339.1 1235.22 2338.44 1235.31 2337.58 1235.35 2336.54 1235.35 2335.54 1235.35 2334.71 1235.31 2334.04 1235.22 2333.38 1235.14 2332.84 1235.02 2332.45 1234.85 2332.05 1234.68 2331.78 1234.49 2331.64 1234.26 2331.49 1234.03 2331.42 1233.75 2331.42 1233.41L2331.42 1177.16C2331.42 1176.83 2331.48 1176.55 2331.6 1176.32 2331.73 1176.09 2331.98 1175.88 2332.35 1175.69 2332.73 1175.51 2333.21 1175.38 2333.79 1175.32 2334.38 1175.26 2335.15 1175.22 2336.1 1175.22 2337.02 1175.22 2337.78 1175.26 2338.39 1175.32 2338.99 1175.38 2339.46 1175.51 2339.79 1175.69 2340.13 1175.88 2340.36 1176.09 2340.51 1176.32 2340.66 1176.55 2340.73 1176.83 2340.73 1177.16L2340.73 1185.35C2342.27 1183.1 2343.72 1181.27 2345.07 1179.85 2346.43 1178.43 2347.71 1177.32 2348.92 1176.51 2350.13 1175.69 2351.32 1175.13 2352.51 1174.82 2353.7 1174.51 2354.9 1174.35 2356.1 1174.35ZM2289.17 1174.35C2293.79 1174.35 2297.82 1175.04 2301.26 1176.41 2304.7 1177.79 2307.56 1179.79 2309.85 1182.41 2312.15 1185.04 2313.86 1188.22 2315.01 1191.97 2316.16 1195.72 2316.73 1199.95 2316.73 1204.66 2316.73 1209.25 2316.13 1213.46 2314.92 1217.32 2313.71 1221.17 2311.91 1224.5 2309.51 1227.29 2307.11 1230.08 2304.11 1232.26 2300.51 1233.82 2296.91 1235.38 2292.73 1236.16 2287.98 1236.16 2283.35 1236.16 2279.32 1235.47 2275.89 1234.1 2272.45 1232.72 2269.58 1230.72 2267.29 1228.1 2265 1225.47 2263.29 1222.29 2262.17 1218.54 2261.04 1214.79 2260.48 1210.54 2260.48 1205.79 2260.48 1201.2 2261.07 1196.99 2262.26 1193.13 2263.45 1189.28 2265.24 1185.95 2267.64 1183.16 2270.03 1180.37 2273.02 1178.2 2276.6 1176.66 2280.19 1175.12 2284.38 1174.35 2289.17 1174.35ZM2090.67 1174.35C2095.08 1174.35 2098.84 1175.06 2101.95 1176.47 2105.05 1177.89 2107.6 1179.8 2109.6 1182.19 2111.6 1184.59 2113.07 1187.4 2114.01 1190.63 2114.95 1193.86 2115.42 1197.31 2115.42 1200.97L2115.42 1202.85C2115.42 1204.47 2115.01 1205.63 2114.19 1206.32 2113.38 1207.01 2112.45 1207.35 2111.4 1207.35L2074.35 1207.35C2074.35 1210.47 2074.67 1213.29 2075.3 1215.79 2075.92 1218.29 2076.97 1220.43 2078.44 1222.22 2079.9 1224.02 2081.81 1225.39 2084.15 1226.35 2086.5 1227.31 2089.36 1227.79 2092.76 1227.79 2095.44 1227.79 2097.82 1227.57 2099.92 1227.13 2102.01 1226.69 2103.82 1226.2 2105.35 1225.66 2106.88 1225.12 2108.13 1224.63 2109.12 1224.19 2110.1 1223.76 2110.84 1223.54 2111.35 1223.54 2111.64 1223.54 2111.9 1223.61 2112.13 1223.76 2112.36 1223.9 2112.54 1224.12 2112.67 1224.41 2112.79 1224.7 2112.89 1225.11 2112.95 1225.63 2113.01 1226.15 2113.04 1226.79 2113.04 1227.54 2113.04 1228.08 2113.02 1228.55 2112.98 1228.94 2112.94 1229.34 2112.89 1229.69 2112.82 1230.01 2112.76 1230.32 2112.66 1230.6 2112.51 1230.85 2112.36 1231.1 2112.18 1231.34 2111.95 1231.57 2111.72 1231.8 2111.04 1232.17 2109.92 1232.69 2108.79 1233.21 2107.33 1233.72 2105.54 1234.22 2103.75 1234.72 2101.68 1235.17 2099.32 1235.57 2096.97 1235.96 2094.46 1236.16 2091.79 1236.16 2087.17 1236.16 2083.11 1235.52 2079.64 1234.22 2076.16 1232.93 2073.23 1231.02 2070.85 1228.47 2068.48 1225.93 2066.69 1222.75 2065.48 1218.91 2064.27 1215.08 2063.67 1210.62 2063.67 1205.54 2063.67 1200.7 2064.29 1196.36 2065.54 1192.51 2066.79 1188.65 2068.59 1185.38 2070.95 1182.69 2073.3 1180.01 2076.15 1177.94 2079.48 1176.51 2082.81 1175.07 2086.54 1174.35 2090.67 1174.35ZM2137.98 1160.16C2139.02 1160.16 2139.88 1160.2 2140.54 1160.29 2141.21 1160.37 2141.73 1160.51 2142.1 1160.69 2142.48 1160.88 2142.75 1161.1 2142.92 1161.35 2143.08 1161.6 2143.17 1161.87 2143.17 1162.16L2143.17 1175.54 2157.6 1175.54C2157.94 1175.54 2158.23 1175.61 2158.48 1175.76 2158.73 1175.9 2158.95 1176.15 2159.14 1176.51 2159.32 1176.86 2159.46 1177.31 2159.54 1177.85 2159.63 1178.39 2159.67 1179.06 2159.67 1179.85 2159.67 1181.35 2159.48 1182.43 2159.1 1183.1 2158.73 1183.77 2158.23 1184.1 2157.6 1184.1L2143.17 1184.1 2143.17 1215.47C2143.17 1219.35 2143.74 1222.28 2144.89 1224.26 2146.03 1226.24 2148.08 1227.22 2151.04 1227.22 2152 1227.22 2152.85 1227.13 2153.6 1226.94 2154.35 1226.76 2155.02 1226.56 2155.6 1226.35 2156.19 1226.14 2156.69 1225.94 2157.1 1225.76 2157.52 1225.57 2157.9 1225.47 2158.23 1225.47 2158.44 1225.47 2158.64 1225.53 2158.82 1225.63 2159.01 1225.74 2159.16 1225.93 2159.26 1226.22 2159.36 1226.52 2159.46 1226.91 2159.54 1227.41 2159.63 1227.91 2159.67 1228.54 2159.67 1229.29 2159.67 1230.5 2159.58 1231.45 2159.42 1232.16 2159.25 1232.87 2159 1233.39 2158.67 1233.72 2158.33 1234.06 2157.83 1234.37 2157.17 1234.66 2156.5 1234.95 2155.74 1235.19 2154.89 1235.38 2154.03 1235.57 2153.13 1235.72 2152.17 1235.85 2151.21 1235.97 2150.25 1236.04 2149.29 1236.04 2146.38 1236.04 2143.88 1235.65 2141.79 1234.88 2139.71 1234.11 2138 1232.94 2136.67 1231.38 2135.33 1229.82 2134.36 1227.84 2133.76 1225.44 2133.16 1223.05 2132.85 1220.22 2132.85 1216.97L2132.85 1184.1 2124.98 1184.1C2124.35 1184.1 2123.85 1183.77 2123.48 1183.1 2123.1 1182.43 2122.92 1181.35 2122.92 1179.85 2122.92 1179.06 2122.97 1178.39 2123.07 1177.85 2123.18 1177.31 2123.31 1176.86 2123.48 1176.51 2123.65 1176.15 2123.86 1175.9 2124.14 1175.76 2124.41 1175.61 2124.71 1175.54 2125.04 1175.54L2132.85 1175.54 2132.85 1162.16C2132.85 1161.87 2132.93 1161.6 2133.07 1161.35 2133.22 1161.1 2133.49 1160.88 2133.89 1160.69 2134.28 1160.51 2134.81 1160.37 2135.48 1160.29 2136.15 1160.2 2136.98 1160.16 2137.98 1160.16ZM2041.45 1153.91C2042.42 1153.91 2043.26 1153.95 2043.96 1154.04 2044.66 1154.12 2045.21 1154.26 2045.61 1154.44 2046 1154.63 2046.29 1154.85 2046.47 1155.1 2046.64 1155.35 2046.73 1155.62 2046.73 1155.91L2046.73 1230.54C2046.73 1231.37 2046.59 1232.08 2046.31 1232.66 2046.03 1233.25 2045.66 1233.72 2045.21 1234.1 2044.76 1234.47 2044.25 1234.75 2043.69 1234.91 2043.13 1235.08 2042.57 1235.16 2042.01 1235.16L2038.46 1235.16C2037.34 1235.16 2036.36 1235.05 2035.51 1234.82 2034.67 1234.59 2033.88 1234.17 2033.12 1233.57 2032.37 1232.96 2031.62 1232.14 2030.86 1231.1 2030.11 1230.06 2029.31 1228.72 2028.46 1227.1L2003.79 1181.1C2002.5 1178.72 2001.2 1176.24 1999.89 1173.63 1998.58 1171.03 1997.36 1168.5 1996.23 1166.04L1996.1 1166.04C1996.19 1169.04 1996.25 1172.1 1996.29 1175.22 1996.33 1178.35 1996.35 1181.45 1996.35 1184.54L1996.35 1233.35C1996.35 1233.64 1996.27 1233.92 1996.09 1234.19 1995.92 1234.46 1995.62 1234.67 1995.2 1234.82 1994.78 1234.96 1994.23 1235.09 1993.55 1235.19 1992.87 1235.3 1992 1235.35 1990.95 1235.35 1989.89 1235.35 1989.02 1235.3 1988.34 1235.19 1987.66 1235.09 1987.12 1234.96 1986.73 1234.82 1986.33 1234.67 1986.04 1234.46 1985.87 1234.19 1985.69 1233.92 1985.6 1233.64 1985.6 1233.35L1985.6 1158.72C1985.6 1157.06 1986.08 1155.87 1987.02 1155.16 1987.97 1154.45 1989 1154.1 1990.12 1154.1L1995.41 1154.1C1996.66 1154.1 1997.7 1154.2 1998.54 1154.41 1999.38 1154.62 2000.13 1154.96 2000.8 1155.44 2001.46 1155.92 2002.11 1156.59 2002.73 1157.44 2003.36 1158.3 2004.01 1159.37 2004.69 1160.66L2023.66 1196.16C2024.83 1198.33 2025.96 1200.44 2027.04 1202.51 2028.13 1204.57 2029.18 1206.6 2030.19 1208.6 2031.19 1210.6 2032.19 1212.57 2033.17 1214.51 2034.16 1216.44 2035.14 1218.39 2036.1 1220.35L2036.17 1220.35C2036.08 1217.06 2036.03 1213.63 2036.01 1210.07 2035.99 1206.51 2035.98 1203.08 2035.98 1199.79L2035.98 1155.91C2035.98 1155.62 2036.07 1155.35 2036.24 1155.1 2036.42 1154.85 2036.72 1154.63 2037.13 1154.44 2037.55 1154.26 2038.1 1154.12 2038.78 1154.04 2039.46 1153.95 2040.35 1153.91 2041.45 1153.91ZM2381.54 1147.91C2382.58 1147.91 2383.44 1147.95 2384.1 1148.04 2384.77 1148.12 2385.29 1148.25 2385.67 1148.41 2386.04 1148.58 2386.31 1148.79 2386.48 1149.04 2386.65 1149.29 2386.73 1149.58 2386.73 1149.91L2386.73 1200.79 2407.98 1177.41C2408.31 1177 2408.67 1176.65 2409.04 1176.38 2409.42 1176.11 2409.86 1175.88 2410.39 1175.69 2410.91 1175.51 2411.52 1175.38 2412.23 1175.32 2412.94 1175.26 2413.79 1175.22 2414.79 1175.22 2415.83 1175.22 2416.71 1175.26 2417.42 1175.32 2418.13 1175.38 2418.7 1175.49 2419.14 1175.63 2419.57 1175.78 2419.89 1175.96 2420.07 1176.19 2420.26 1176.42 2420.35 1176.72 2420.35 1177.1 2420.35 1177.6 2420.22 1178.1 2419.95 1178.6 2419.68 1179.1 2419.23 1179.68 2418.6 1180.35L2398.23 1200.72 2421.1 1230.41C2421.65 1231.12 2422.03 1231.69 2422.26 1232.13 2422.49 1232.57 2422.6 1232.97 2422.6 1233.35 2422.6 1233.68 2422.52 1233.97 2422.35 1234.22 2422.19 1234.47 2421.91 1234.68 2421.51 1234.85 2421.11 1235.02 2420.56 1235.14 2419.85 1235.22 2419.15 1235.31 2418.25 1235.35 2417.17 1235.35 2416.04 1235.35 2415.11 1235.32 2414.39 1235.26 2413.66 1235.19 2413.04 1235.09 2412.54 1234.94 2412.04 1234.8 2411.64 1234.59 2411.32 1234.32 2411.01 1234.05 2410.73 1233.72 2410.48 1233.35L2386.73 1202.22 2386.73 1233.41C2386.73 1233.75 2386.65 1234.03 2386.48 1234.26 2386.31 1234.49 2386.04 1234.68 2385.67 1234.85 2385.29 1235.02 2384.77 1235.14 2384.1 1235.22 2383.44 1235.31 2382.58 1235.35 2381.54 1235.35 2380.54 1235.35 2379.71 1235.31 2379.04 1235.22 2378.38 1235.14 2377.84 1235.02 2377.45 1234.85 2377.05 1234.68 2376.78 1234.49 2376.64 1234.26 2376.49 1234.03 2376.42 1233.75 2376.42 1233.41L2376.42 1149.91C2376.42 1149.58 2376.49 1149.29 2376.64 1149.04 2376.78 1148.79 2377.05 1148.58 2377.45 1148.41 2377.84 1148.25 2378.38 1148.12 2379.04 1148.04 2379.71 1147.95 2380.54 1147.91 2381.54 1147.91Z" stroke="#2B79DB" stroke-linejoin="round" stroke-miterlimit="10" fill="#4472C4" fill-rule="evenodd"/><text fill="#000000" fill-opacity="0" font-family="Arial,Arial_MSFontService,sans-serif" font-size="88.25" x="1985.6" y="1225.13">Network </text><g clip-path="url(#clip14)" filter="url(#fx1)" transform="translate(1985 1288)"><g clip-path="url(#clip15)"><path d="M96.4014 40.1974C93.8441 40.1974 91.6012 40.6766 89.6729 41.6349 87.7445 42.5932 86.1304 43.8641 84.8306 45.4474 83.5308 47.0307 82.5246 48.8745 81.812 50.9786 81.0994 53.0828 80.7012 55.2807 80.6172 57.5724L111.305 57.5724C111.43 52.1557 110.224 47.9057 107.688 44.8224 105.153 41.7391 101.39 40.1974 96.4014 40.1974ZM374.367 33.0099C375.617 33.0099 376.596 33.0411 377.305 33.1036 378.013 33.1661 378.576 33.2807 378.992 33.4474 379.409 33.6141 379.711 33.8536 379.898 34.1661 380.086 34.4786 380.284 34.9057 380.492 35.4474L396.555 80.5724 396.742 80.5724 412.242 35.1974C412.492 34.4057 412.794 33.8953 413.148 33.6661 413.503 33.437 414.034 33.2703 414.742 33.1661 415.451 33.062 416.471 33.0099 417.805 33.0099 418.971 33.0099 419.93 33.062 420.68 33.1661 421.43 33.2703 421.982 33.4682 422.336 33.7599 422.69 34.0516 422.867 34.4474 422.867 34.9474 422.867 35.4474 422.742 36.0724 422.492 36.8224L402.305 92.7599 394.805 113.447C394.555 114.114 393.919 114.624 392.898 114.979 391.878 115.333 390.326 115.51 388.242 115.51 387.159 115.51 386.284 115.458 385.617 115.354 384.951 115.249 384.44 115.072 384.086 114.822 383.732 114.572 383.534 114.239 383.492 113.822 383.451 113.406 383.555 112.906 383.805 112.322L391.555 92.7599C391.18 92.5932 390.826 92.3224 390.492 91.9474 390.159 91.5724 389.93 91.1766 389.805 90.7599L369.742 37.0099C369.409 36.1349 369.242 35.4474 369.242 34.9474 369.242 34.4474 369.409 34.0516 369.742 33.7599 370.076 33.4682 370.617 33.2703 371.367 33.1661 372.117 33.062 373.117 33.0099 374.367 33.0099ZM308.805 33.0099C309.846 33.0099 310.701 33.0516 311.367 33.1349 312.034 33.2182 312.555 33.3432 312.93 33.5099 313.305 33.6766 313.576 33.8849 313.742 34.1349 313.909 34.3849 313.992 34.6557 313.992 34.9474L313.992 91.1974C313.992 91.5307 313.909 91.812 313.742 92.0411 313.576 92.2703 313.305 92.4682 312.93 92.6349 312.555 92.8016 312.034 92.9266 311.367 93.0099 310.701 93.0932 309.846 93.1349 308.805 93.1349 307.805 93.1349 306.971 93.0932 306.305 93.0099 305.638 92.9266 305.107 92.8016 304.711 92.6349 304.315 92.4682 304.044 92.2703 303.898 92.0411 303.753 91.812 303.68 91.5307 303.68 91.1974L303.68 34.9474C303.68 34.6557 303.753 34.3849 303.898 34.1349 304.044 33.8849 304.315 33.6766 304.711 33.5099 305.107 33.3432 305.638 33.2182 306.305 33.1349 306.971 33.0516 307.805 33.0099 308.805 33.0099ZM196.555 33.0099C197.555 33.0099 198.388 33.0411 199.055 33.1036 199.721 33.1661 200.253 33.2911 200.648 33.4786 201.044 33.6661 201.326 33.8745 201.492 34.1036 201.659 34.3328 201.742 34.6141 201.742 34.9474L201.742 67.6974C201.742 70.9891 201.982 73.6245 202.461 75.6036 202.94 77.5828 203.669 79.2703 204.648 80.6661 205.628 82.062 206.867 83.1453 208.367 83.9161 209.867 84.687 211.617 85.0724 213.617 85.0724 216.201 85.0724 218.773 84.1557 221.336 82.3224 223.898 80.4891 226.617 77.8016 229.492 74.2599L229.492 34.9474C229.492 34.6141 229.565 34.3328 229.711 34.1036 229.857 33.8745 230.138 33.6661 230.555 33.4786 230.971 33.2911 231.503 33.1661 232.148 33.1036 232.794 33.0411 233.638 33.0099 234.68 33.0099 235.68 33.0099 236.513 33.0411 237.18 33.1036 237.846 33.1661 238.367 33.2911 238.742 33.4786 239.117 33.6661 239.398 33.8745 239.586 34.1036 239.773 34.3328 239.867 34.6141 239.867 34.9474L239.867 91.1974C239.867 91.5307 239.794 91.812 239.648 92.0411 239.503 92.2703 239.242 92.4682 238.867 92.6349 238.492 92.8016 238.003 92.9266 237.398 93.0099 236.794 93.0932 236.055 93.1349 235.18 93.1349 234.221 93.1349 233.44 93.0932 232.836 93.0099 232.232 92.9266 231.753 92.8016 231.398 92.6349 231.044 92.4682 230.805 92.2703 230.68 92.0411 230.555 91.812 230.492 91.5307 230.492 91.1974L230.492 83.7599C227.284 87.3016 224.117 89.8849 220.992 91.5099 217.867 93.1349 214.701 93.9474 211.492 93.9474 207.742 93.9474 204.586 93.3224 202.023 92.0724 199.461 90.8224 197.388 89.1245 195.805 86.9786 194.221 84.8328 193.086 82.3328 192.398 79.4786 191.711 76.6245 191.367 73.1557 191.367 69.0724L191.367 34.9474C191.367 34.6141 191.44 34.3328 191.586 34.1036 191.732 33.8745 192.013 33.6661 192.43 33.4786 192.846 33.2911 193.388 33.1661 194.055 33.1036 194.721 33.0411 195.555 33.0099 196.555 33.0099ZM159.992 32.1974C161.784 32.1974 163.523 32.3641 165.211 32.6974 166.898 33.0307 168.451 33.4682 169.867 34.0099 171.284 34.5516 172.544 35.1766 173.648 35.8849 174.753 36.5932 175.555 37.1974 176.055 37.6974 176.555 38.1974 176.898 38.5932 177.086 38.8849 177.273 39.1766 177.43 39.5203 177.555 39.9161 177.68 40.312 177.763 40.7599 177.805 41.2599 177.846 41.7599 177.867 42.3849 177.867 43.1349 177.867 44.7599 177.68 45.8953 177.305 46.5411 176.93 47.187 176.471 47.5099 175.93 47.5099 175.305 47.5099 174.586 47.1661 173.773 46.4786 172.961 45.7911 171.93 45.0307 170.68 44.1974 169.43 43.3641 167.919 42.6036 166.148 41.9161 164.378 41.2286 162.284 40.8849 159.867 40.8849 154.909 40.8849 151.107 42.7911 148.461 46.6036 145.815 50.4161 144.492 55.9474 144.492 63.1974 144.492 66.8224 144.836 69.9995 145.523 72.7286 146.211 75.4578 147.221 77.7391 148.555 79.5724 149.888 81.4057 151.523 82.7703 153.461 83.6661 155.398 84.562 157.617 85.0099 160.117 85.0099 162.492 85.0099 164.576 84.6349 166.367 83.8849 168.159 83.1349 169.711 82.312 171.023 81.4161 172.336 80.5203 173.44 79.7078 174.336 78.9786 175.232 78.2495 175.93 77.8849 176.43 77.8849 176.721 77.8849 176.971 77.9682 177.18 78.1349 177.388 78.3016 177.565 78.5828 177.711 78.9786 177.857 79.3745 177.961 79.8745 178.023 80.4786 178.086 81.0828 178.117 81.8016 178.117 82.6349 178.117 83.3432 178.096 83.9578 178.055 84.4786 178.013 84.9995 177.94 85.437 177.836 85.7911 177.732 86.1453 177.607 86.4578 177.461 86.7286 177.315 86.9995 176.982 87.3953 176.461 87.9161 175.94 88.437 175.055 89.0828 173.805 89.8536 172.555 90.6245 171.148 91.312 169.586 91.9161 168.023 92.5203 166.326 93.0099 164.492 93.3849 162.659 93.7599 160.763 93.9474 158.805 93.9474 154.763 93.9474 151.18 93.2807 148.055 91.9474 144.93 90.6141 142.315 88.6661 140.211 86.1036 138.107 83.5411 136.503 80.3953 135.398 76.6661 134.294 72.937 133.742 68.6349 133.742 63.7599 133.742 58.2182 134.419 53.4578 135.773 49.4786 137.128 45.4995 138.982 42.2391 141.336 39.6974 143.69 37.1557 146.461 35.2703 149.648 34.0411 152.836 32.812 156.284 32.1974 159.992 32.1974ZM283.367 32.1349C283.909 32.1349 284.523 32.1661 285.211 32.2286 285.898 32.2911 286.617 32.4057 287.367 32.5724 288.117 32.7391 288.794 32.9266 289.398 33.1349 290.003 33.3432 290.43 33.5516 290.68 33.7599 290.93 33.9682 291.096 34.1661 291.18 34.3536 291.263 34.5411 291.336 34.7807 291.398 35.0724 291.461 35.3641 291.503 35.7911 291.523 36.3536 291.544 36.9161 291.555 37.6766 291.555 38.6349 291.555 39.5516 291.534 40.3224 291.492 40.9474 291.451 41.5724 291.367 42.062 291.242 42.4161 291.117 42.7703 290.961 43.0411 290.773 43.2286 290.586 43.4161 290.326 43.5099 289.992 43.5099 289.659 43.5099 289.253 43.4161 288.773 43.2286 288.294 43.0411 287.753 42.8536 287.148 42.6661 286.544 42.4786 285.867 42.3016 285.117 42.1349 284.367 41.9682 283.555 41.8849 282.68 41.8849 281.638 41.8849 280.617 42.0932 279.617 42.5099 278.617 42.9266 277.565 43.6141 276.461 44.5724 275.357 45.5307 274.201 46.8016 272.992 48.3849 271.784 49.9682 270.451 51.9057 268.992 54.1974L268.992 91.1974C268.992 91.5307 268.909 91.812 268.742 92.0411 268.576 92.2703 268.305 92.4682 267.93 92.6349 267.555 92.8016 267.034 92.9266 266.367 93.0099 265.701 93.0932 264.846 93.1349 263.805 93.1349 262.805 93.1349 261.971 93.0932 261.305 93.0099 260.638 92.9266 260.107 92.8016 259.711 92.6349 259.315 92.4682 259.044 92.2703 258.898 92.0411 258.753 91.812 258.68 91.5307 258.68 91.1974L258.68 34.9474C258.68 34.6141 258.742 34.3328 258.867 34.1036 258.992 33.8745 259.242 33.6661 259.617 33.4786 259.992 33.2911 260.471 33.1661 261.055 33.1036 261.638 33.0411 262.409 33.0099 263.367 33.0099 264.284 33.0099 265.044 33.0411 265.648 33.1036 266.253 33.1661 266.721 33.2911 267.055 33.4786 267.388 33.6661 267.628 33.8745 267.773 34.1036 267.919 34.3328 267.992 34.6141 267.992 34.9474L267.992 43.1349C269.534 40.8849 270.982 39.0516 272.336 37.6349 273.69 36.2182 274.971 35.1036 276.18 34.2911 277.388 33.4786 278.586 32.9161 279.773 32.6036 280.961 32.2911 282.159 32.1349 283.367 32.1349ZM96.9297 32.1349C101.346 32.1349 105.107 32.8432 108.211 34.2599 111.315 35.6766 113.867 37.5828 115.867 39.9786 117.867 42.3745 119.336 45.187 120.273 48.4161 121.211 51.6453 121.68 55.0932 121.68 58.7599L121.68 60.6349C121.68 62.2599 121.272 63.4161 120.456 64.1036 119.639 64.7911 118.708 65.1349 117.661 65.1349L80.6172 65.1349C80.6172 68.2599 80.9312 71.0724 81.5591 73.5724 82.187 76.0724 83.2337 78.2182 84.6992 80.0099 86.1647 81.8016 88.0698 83.1766 90.4146 84.1349 92.7593 85.0932 95.6273 85.5724 99.0186 85.5724 101.698 85.5724 104.085 85.3536 106.178 84.9161 108.272 84.4786 110.083 83.9891 111.611 83.4474 113.139 82.9057 114.395 82.4161 115.379 81.9786 116.363 81.5411 117.107 81.3224 117.609 81.3224 117.902 81.3224 118.164 81.3953 118.394 81.5411 118.624 81.687 118.802 81.9057 118.928 82.1974 119.053 82.4891 119.148 82.8953 119.21 83.4161 119.273 83.937 119.305 84.5724 119.305 85.3224 119.305 85.8641 119.284 86.3328 119.242 86.7286 119.201 87.1245 119.148 87.4786 119.086 87.7911 119.023 88.1036 118.919 88.3849 118.773 88.6349 118.628 88.8849 118.44 89.1245 118.211 89.3536 117.982 89.5828 117.305 89.9578 116.18 90.4786 115.055 90.9995 113.596 91.5099 111.805 92.0099 110.013 92.5099 107.94 92.9578 105.586 93.3536 103.232 93.7495 100.721 93.9474 98.0547 93.9474 93.4297 93.9474 89.3776 93.3016 85.8984 92.0099 82.4193 90.7182 79.4922 88.8016 77.1172 86.2599 74.7422 83.7182 72.9505 80.5307 71.7422 76.6974 70.5339 72.8641 69.9297 68.4057 69.9297 63.3224 69.9297 58.4891 70.5547 54.1453 71.8047 50.2911 73.0547 46.437 74.8568 43.1661 77.2109 40.4786 79.5651 37.7911 82.4089 35.7286 85.7422 34.2911 89.0755 32.8536 92.8047 32.1349 96.9297 32.1349ZM341.242 17.9474C342.284 17.9474 343.138 17.9891 343.805 18.0724 344.471 18.1557 344.992 18.2911 345.367 18.4786 345.742 18.6661 346.013 18.8849 346.18 19.1349 346.346 19.3849 346.43 19.6557 346.43 19.9474L346.43 33.3224 360.867 33.3224C361.201 33.3224 361.492 33.3953 361.742 33.5411 361.992 33.687 362.211 33.937 362.398 34.2911 362.586 34.6453 362.721 35.0932 362.805 35.6349 362.888 36.1766 362.93 36.8432 362.93 37.6349 362.93 39.1349 362.742 40.2182 362.367 40.8849 361.992 41.5516 361.492 41.8849 360.867 41.8849L346.43 41.8849 346.43 73.2599C346.43 77.1349 347.003 80.062 348.148 82.0411 349.294 84.0203 351.346 85.0099 354.305 85.0099 355.263 85.0099 356.117 84.9161 356.867 84.7286 357.617 84.5411 358.284 84.3432 358.867 84.1349 359.451 83.9266 359.951 83.7286 360.367 83.5411 360.784 83.3536 361.159 83.2599 361.492 83.2599 361.701 83.2599 361.898 83.312 362.086 83.4161 362.273 83.5203 362.419 83.7182 362.523 84.0099 362.628 84.3016 362.721 84.6974 362.805 85.1974 362.888 85.6974 362.93 86.3224 362.93 87.0724 362.93 88.2807 362.846 89.2391 362.68 89.9474 362.513 90.6557 362.263 91.1766 361.93 91.5099 361.596 91.8432 361.096 92.1557 360.43 92.4474 359.763 92.7391 359.003 92.9786 358.148 93.1661 357.294 93.3536 356.388 93.5099 355.43 93.6349 354.471 93.7599 353.513 93.8224 352.555 93.8224 349.638 93.8224 347.138 93.437 345.055 92.6661 342.971 91.8953 341.263 90.7286 339.93 89.1661 338.596 87.6036 337.628 85.6245 337.023 83.2286 336.419 80.8328 336.117 78.0099 336.117 74.7599L336.117 41.8849 328.242 41.8849C327.617 41.8849 327.117 41.5516 326.742 40.8849 326.367 40.2182 326.18 39.1349 326.18 37.6349 326.18 36.8432 326.232 36.1766 326.336 35.6349 326.44 35.0932 326.576 34.6453 326.742 34.2911 326.909 33.937 327.128 33.687 327.398 33.5411 327.669 33.3953 327.971 33.3224 328.305 33.3224L336.117 33.3224 336.117 19.9474C336.117 19.6557 336.19 19.3849 336.336 19.1349 336.482 18.8849 336.753 18.6661 337.148 18.4786 337.544 18.2911 338.076 18.1557 338.742 18.0724 339.409 17.9891 340.242 17.9474 341.242 17.9474ZM36.1172 10.6974C37.9089 10.6974 39.7109 10.8536 41.5234 11.1661 43.3359 11.4786 45.0443 11.8953 46.6484 12.4161 48.2526 12.937 49.6797 13.5203 50.9297 14.1661 52.1797 14.812 53.0026 15.3328 53.3984 15.7286 53.7943 16.1245 54.0547 16.437 54.1797 16.6661 54.3047 16.8953 54.4089 17.187 54.4922 17.5411 54.5755 17.8953 54.638 18.3224 54.6797 18.8224 54.7214 19.3224 54.7422 19.9682 54.7422 20.7599 54.7422 21.5099 54.7109 22.1766 54.6484 22.7599 54.5859 23.3432 54.4922 23.8328 54.3672 24.2286 54.2422 24.6245 54.0651 24.9161 53.8359 25.1036 53.6068 25.2911 53.3464 25.3849 53.0547 25.3849 52.5964 25.3849 51.8776 25.0932 50.8984 24.5099 49.9193 23.9266 48.7214 23.2703 47.3047 22.5411 45.888 21.812 44.2109 21.1453 42.2734 20.5411 40.3359 19.937 38.1589 19.6349 35.7422 19.6349 33.4922 19.6349 31.5339 19.937 29.8672 20.5411 28.2005 21.1453 26.8255 21.9474 25.7422 22.9474 24.6589 23.9474 23.8464 25.1349 23.3047 26.5099 22.763 27.8849 22.4922 29.3432 22.4922 30.8849 22.4922 33.1349 23.013 35.0724 24.0547 36.6974 25.0964 38.3224 26.4818 39.7599 28.2109 41.0099 29.9401 42.2599 31.9089 43.4057 34.1172 44.4474 36.3255 45.4891 38.5755 46.5411 40.8672 47.6036 43.1589 48.6661 45.4089 49.8328 47.6172 51.1036 49.8255 52.3745 51.7943 53.8745 53.5234 55.6036 55.2526 57.3328 56.6484 59.3745 57.7109 61.7286 58.7734 64.0828 59.3047 66.8641 59.3047 70.0724 59.3047 73.8641 58.6068 77.2391 57.2109 80.1974 55.8151 83.1557 53.8776 85.6661 51.3984 87.7286 48.9193 89.7911 46.0026 91.3432 42.6484 92.3849 39.2943 93.4266 35.6797 93.9474 31.8047 93.9474 29.0964 93.9474 26.5859 93.7182 24.2734 93.2599 21.9609 92.8016 19.8984 92.2391 18.0859 91.5724 16.2734 90.9057 14.7526 90.2182 13.5234 89.5099 12.2943 88.8016 11.4401 88.1974 10.9609 87.6974 10.4818 87.1974 10.1276 86.562 9.89845 85.7911 9.66928 85.0203 9.5547 83.9891 9.5547 82.6974 9.5547 81.7807 9.59636 81.0203 9.6797 80.4161 9.76303 79.812 9.88803 79.3224 10.0547 78.9474 10.2214 78.5724 10.4297 78.312 10.6797 78.1661 10.9297 78.0203 11.2214 77.9474 11.5547 77.9474 12.138 77.9474 12.9609 78.3016 14.0234 79.0099 15.0859 79.7182 16.4505 80.4891 18.1172 81.3224 19.7839 82.1557 21.7943 82.937 24.1484 83.6661 26.5026 84.3953 29.2214 84.7599 32.3047 84.7599 34.638 84.7599 36.7734 84.4474 38.7109 83.8224 40.6484 83.1974 42.3151 82.312 43.7109 81.1661 45.1068 80.0203 46.1797 78.6141 46.9297 76.9474 47.6797 75.2807 48.0547 73.3849 48.0547 71.2599 48.0547 68.9682 47.5339 67.0099 46.4922 65.3849 45.4505 63.7599 44.0755 62.3328 42.3672 61.1036 40.6589 59.8745 38.7109 58.7495 36.5234 57.7286 34.3359 56.7078 32.0964 55.6661 29.8047 54.6036 27.513 53.5411 25.2839 52.3641 23.1172 51.0724 20.9505 49.7807 19.013 48.2599 17.3047 46.5099 15.5964 44.7599 14.2109 42.7078 13.1484 40.3536 12.0859 37.9995 11.5547 35.1766 11.5547 31.8849 11.5547 28.5099 12.1693 25.4995 13.3984 22.8536 14.6276 20.2078 16.3359 17.9891 18.5234 16.1974 20.7109 14.4057 23.3151 13.0411 26.3359 12.1036 29.3568 11.1661 32.6172 10.6974 36.1172 10.6974ZM308.867 9.8224C311.284 9.8224 312.94 10.2495 313.836 11.1036 314.732 11.9578 315.18 13.5724 315.18 15.9474 315.18 18.3641 314.721 20.0099 313.805 20.8849 312.888 21.7599 311.201 22.1974 308.742 22.1974 306.326 22.1974 304.669 21.7703 303.773 20.9161 302.878 20.062 302.43 18.4474 302.43 16.0724 302.43 13.6557 302.888 12.0099 303.805 11.1349 304.721 10.2599 306.409 9.8224 308.867 9.8224Z" stroke="#2B79DB" stroke-linejoin="round" stroke-miterlimit="10" fill="#4472C4" fill-rule="evenodd"/></g></g><path d="M2081.4 1323.41C2078.84 1323.41 2076.6 1323.89 2074.67 1324.85 2072.74 1325.81 2071.13 1327.08 2069.83 1328.66 2068.53 1330.25 2067.52 1332.09 2066.81 1334.19 2066.1 1336.3 2065.7 1338.5 2065.62 1340.79L2096.3 1340.79C2096.43 1335.37 2095.22 1331.12 2092.69 1328.04 2090.15 1324.95 2086.39 1323.41 2081.4 1323.41ZM2359.37 1316.22C2360.62 1316.22 2361.6 1316.26 2362.3 1316.32 2363.01 1316.38 2363.58 1316.5 2363.99 1316.66 2364.41 1316.83 2364.71 1317.07 2364.9 1317.38 2365.09 1317.69 2365.28 1318.12 2365.49 1318.66L2381.55 1363.79 2381.74 1363.79 2397.24 1318.41C2397.49 1317.62 2397.79 1317.11 2398.15 1316.88 2398.5 1316.65 2399.03 1316.49 2399.74 1316.38 2400.45 1316.28 2401.47 1316.22 2402.8 1316.22 2403.97 1316.22 2404.93 1316.28 2405.68 1316.38 2406.43 1316.49 2406.98 1316.68 2407.34 1316.97 2407.69 1317.27 2407.87 1317.66 2407.87 1318.16 2407.87 1318.66 2407.74 1319.29 2407.49 1320.04L2387.3 1375.97 2379.8 1396.66C2379.55 1397.33 2378.92 1397.84 2377.9 1398.19 2376.88 1398.55 2375.33 1398.72 2373.24 1398.72 2372.16 1398.72 2371.28 1398.67 2370.62 1398.57 2369.95 1398.46 2369.44 1398.29 2369.09 1398.04 2368.73 1397.79 2368.53 1397.45 2368.49 1397.04 2368.45 1396.62 2368.55 1396.12 2368.8 1395.54L2376.55 1375.97C2376.18 1375.81 2375.83 1375.54 2375.49 1375.16 2375.16 1374.79 2374.93 1374.39 2374.8 1373.97L2354.74 1320.22C2354.41 1319.35 2354.24 1318.66 2354.24 1318.16 2354.24 1317.66 2354.41 1317.27 2354.74 1316.97 2355.08 1316.68 2355.62 1316.49 2356.37 1316.38 2357.12 1316.28 2358.12 1316.22 2359.37 1316.22ZM2293.8 1316.22C2294.85 1316.22 2295.7 1316.27 2296.37 1316.35 2297.03 1316.43 2297.55 1316.56 2297.93 1316.72 2298.3 1316.89 2298.58 1317.1 2298.74 1317.35 2298.91 1317.6 2298.99 1317.87 2298.99 1318.16L2298.99 1374.41C2298.99 1374.75 2298.91 1375.03 2298.74 1375.26 2298.58 1375.49 2298.3 1375.68 2297.93 1375.85 2297.55 1376.02 2297.03 1376.14 2296.37 1376.22 2295.7 1376.31 2294.85 1376.35 2293.8 1376.35 2292.8 1376.35 2291.97 1376.31 2291.3 1376.22 2290.64 1376.14 2290.11 1376.02 2289.71 1375.85 2289.31 1375.68 2289.04 1375.49 2288.9 1375.26 2288.75 1375.03 2288.68 1374.75 2288.68 1374.41L2288.68 1318.16C2288.68 1317.87 2288.75 1317.6 2288.9 1317.35 2289.04 1317.1 2289.31 1316.89 2289.71 1316.72 2290.11 1316.56 2290.64 1316.43 2291.3 1316.35 2291.97 1316.27 2292.8 1316.22 2293.8 1316.22ZM2181.55 1316.22C2182.55 1316.22 2183.39 1316.26 2184.05 1316.32 2184.72 1316.38 2185.25 1316.51 2185.65 1316.69 2186.04 1316.88 2186.33 1317.09 2186.49 1317.32 2186.66 1317.55 2186.74 1317.83 2186.74 1318.16L2186.74 1350.91C2186.74 1354.2 2186.98 1356.84 2187.46 1358.82 2187.94 1360.8 2188.67 1362.49 2189.65 1363.88 2190.63 1365.28 2191.87 1366.36 2193.37 1367.13 2194.87 1367.9 2196.62 1368.29 2198.62 1368.29 2201.2 1368.29 2203.77 1367.37 2206.34 1365.54 2208.9 1363.7 2211.62 1361.02 2214.49 1357.47L2214.49 1318.16C2214.49 1317.83 2214.57 1317.55 2214.71 1317.32 2214.86 1317.09 2215.14 1316.88 2215.55 1316.69 2215.97 1316.51 2216.5 1316.38 2217.15 1316.32 2217.79 1316.26 2218.64 1316.22 2219.68 1316.22 2220.68 1316.22 2221.51 1316.26 2222.18 1316.32 2222.85 1316.38 2223.37 1316.51 2223.74 1316.69 2224.12 1316.88 2224.4 1317.09 2224.59 1317.32 2224.77 1317.55 2224.87 1317.83 2224.87 1318.16L2224.87 1374.41C2224.87 1374.75 2224.79 1375.03 2224.65 1375.26 2224.5 1375.49 2224.24 1375.68 2223.87 1375.85 2223.49 1376.02 2223 1376.14 2222.4 1376.22 2221.79 1376.31 2221.05 1376.35 2220.18 1376.35 2219.22 1376.35 2218.44 1376.31 2217.84 1376.22 2217.23 1376.14 2216.75 1376.02 2216.4 1375.85 2216.04 1375.68 2215.8 1375.49 2215.68 1375.26 2215.55 1375.03 2215.49 1374.75 2215.49 1374.41L2215.49 1366.97C2212.28 1370.52 2209.12 1373.1 2205.99 1374.72 2202.87 1376.35 2199.7 1377.16 2196.49 1377.16 2192.74 1377.16 2189.59 1376.54 2187.02 1375.29 2184.46 1374.04 2182.39 1372.34 2180.8 1370.19 2179.22 1368.05 2178.09 1365.55 2177.4 1362.69 2176.71 1359.84 2176.37 1356.37 2176.37 1352.29L2176.37 1318.16C2176.37 1317.83 2176.44 1317.55 2176.59 1317.32 2176.73 1317.09 2177.01 1316.88 2177.43 1316.69 2177.85 1316.51 2178.39 1316.38 2179.05 1316.32 2179.72 1316.26 2180.55 1316.22 2181.55 1316.22ZM2144.99 1315.41C2146.78 1315.41 2148.52 1315.58 2150.21 1315.91 2151.9 1316.25 2153.45 1316.68 2154.87 1317.22 2156.28 1317.77 2157.54 1318.39 2158.65 1319.1 2159.75 1319.81 2160.55 1320.41 2161.05 1320.91 2161.55 1321.41 2161.9 1321.81 2162.09 1322.1 2162.27 1322.39 2162.43 1322.74 2162.55 1323.13 2162.68 1323.53 2162.76 1323.97 2162.8 1324.47 2162.85 1324.97 2162.87 1325.6 2162.87 1326.35 2162.87 1327.97 2162.68 1329.11 2162.3 1329.76 2161.93 1330.4 2161.47 1330.72 2160.93 1330.72 2160.3 1330.72 2159.59 1330.38 2158.77 1329.69 2157.96 1329.01 2156.93 1328.25 2155.68 1327.41 2154.43 1326.58 2152.92 1325.82 2151.15 1325.13 2149.38 1324.44 2147.28 1324.1 2144.87 1324.1 2139.91 1324.1 2136.11 1326.01 2133.46 1329.82 2130.82 1333.63 2129.49 1339.16 2129.49 1346.41 2129.49 1350.04 2129.84 1353.21 2130.52 1355.94 2131.21 1358.67 2132.22 1360.95 2133.55 1362.79 2134.89 1364.62 2136.52 1365.99 2138.46 1366.88 2140.4 1367.78 2142.62 1368.22 2145.12 1368.22 2147.49 1368.22 2149.58 1367.85 2151.37 1367.1 2153.16 1366.35 2154.71 1365.53 2156.02 1364.63 2157.34 1363.74 2158.44 1362.92 2159.34 1362.19 2160.23 1361.46 2160.93 1361.1 2161.43 1361.1 2161.72 1361.1 2161.97 1361.18 2162.18 1361.35 2162.39 1361.52 2162.57 1361.8 2162.71 1362.19 2162.86 1362.59 2162.96 1363.09 2163.02 1363.69 2163.09 1364.3 2163.12 1365.02 2163.12 1365.85 2163.12 1366.56 2163.1 1367.17 2163.05 1367.69 2163.01 1368.21 2162.94 1368.65 2162.84 1369.01 2162.73 1369.36 2162.61 1369.67 2162.46 1369.94 2162.32 1370.21 2161.98 1370.61 2161.46 1371.13 2160.94 1371.65 2160.05 1372.3 2158.8 1373.07 2157.55 1373.84 2156.15 1374.53 2154.59 1375.13 2153.02 1375.74 2151.33 1376.22 2149.49 1376.6 2147.66 1376.97 2145.76 1377.16 2143.8 1377.16 2139.76 1377.16 2136.18 1376.5 2133.05 1375.16 2129.93 1373.83 2127.32 1371.88 2125.21 1369.32 2123.11 1366.76 2121.5 1363.61 2120.4 1359.88 2119.29 1356.15 2118.74 1351.85 2118.74 1346.97 2118.74 1341.43 2119.42 1336.67 2120.77 1332.69 2122.13 1328.71 2123.98 1325.45 2126.34 1322.91 2128.69 1320.37 2131.46 1318.49 2134.65 1317.26 2137.84 1316.03 2141.28 1315.41 2144.99 1315.41ZM2268.37 1315.35C2268.91 1315.35 2269.52 1315.38 2270.21 1315.44 2270.9 1315.51 2271.62 1315.62 2272.37 1315.79 2273.12 1315.95 2273.79 1316.14 2274.4 1316.35 2275 1316.56 2275.43 1316.77 2275.68 1316.97 2275.93 1317.18 2276.1 1317.38 2276.18 1317.57 2276.26 1317.76 2276.34 1318 2276.4 1318.29 2276.46 1318.58 2276.5 1319.01 2276.52 1319.57 2276.54 1320.13 2276.55 1320.89 2276.55 1321.85 2276.55 1322.77 2276.53 1323.54 2276.49 1324.16 2276.45 1324.79 2276.37 1325.28 2276.24 1325.63 2276.12 1325.99 2275.96 1326.26 2275.77 1326.44 2275.59 1326.63 2275.33 1326.72 2274.99 1326.72 2274.66 1326.72 2274.25 1326.63 2273.77 1326.44 2273.29 1326.26 2272.75 1326.07 2272.15 1325.88 2271.54 1325.69 2270.87 1325.52 2270.12 1325.35 2269.37 1325.18 2268.55 1325.1 2267.68 1325.1 2266.64 1325.1 2265.62 1325.31 2264.62 1325.72 2263.62 1326.14 2262.56 1326.83 2261.46 1327.79 2260.36 1328.75 2259.2 1330.02 2257.99 1331.6 2256.78 1333.18 2255.45 1335.12 2253.99 1337.41L2253.99 1374.41C2253.99 1374.75 2253.91 1375.03 2253.74 1375.26 2253.58 1375.49 2253.3 1375.68 2252.93 1375.85 2252.55 1376.02 2252.03 1376.14 2251.37 1376.22 2250.7 1376.31 2249.85 1376.35 2248.8 1376.35 2247.8 1376.35 2246.97 1376.31 2246.3 1376.22 2245.64 1376.14 2245.11 1376.02 2244.71 1375.85 2244.32 1375.68 2244.04 1375.49 2243.9 1375.26 2243.75 1375.03 2243.68 1374.75 2243.68 1374.41L2243.68 1318.16C2243.68 1317.83 2243.74 1317.55 2243.87 1317.32 2243.99 1317.09 2244.24 1316.88 2244.62 1316.69 2244.99 1316.51 2245.47 1316.38 2246.05 1316.32 2246.64 1316.26 2247.41 1316.22 2248.37 1316.22 2249.28 1316.22 2250.04 1316.26 2250.65 1316.32 2251.25 1316.38 2251.72 1316.51 2252.05 1316.69 2252.39 1316.88 2252.63 1317.09 2252.77 1317.32 2252.92 1317.55 2252.99 1317.83 2252.99 1318.16L2252.99 1326.35C2254.53 1324.1 2255.98 1322.27 2257.34 1320.85 2258.69 1319.43 2259.97 1318.32 2261.18 1317.51 2262.39 1316.69 2263.59 1316.13 2264.77 1315.82 2265.96 1315.51 2267.16 1315.35 2268.37 1315.35ZM2081.93 1315.35C2086.35 1315.35 2090.11 1316.06 2093.21 1317.47 2096.32 1318.89 2098.87 1320.8 2100.87 1323.19 2102.87 1325.59 2104.34 1328.4 2105.27 1331.63 2106.21 1334.86 2106.68 1338.31 2106.68 1341.97L2106.68 1343.85C2106.68 1345.47 2106.27 1346.63 2105.46 1347.32 2104.64 1348.01 2103.71 1348.35 2102.66 1348.35L2065.62 1348.35C2065.62 1351.47 2065.93 1354.29 2066.56 1356.79 2067.19 1359.29 2068.23 1361.43 2069.7 1363.22 2071.16 1365.02 2073.07 1366.39 2075.41 1367.35 2077.76 1368.31 2080.63 1368.79 2084.02 1368.79 2086.7 1368.79 2089.08 1368.57 2091.18 1368.13 2093.27 1367.69 2095.08 1367.2 2096.61 1366.66 2098.14 1366.12 2099.4 1365.63 2100.38 1365.19 2101.36 1364.76 2102.11 1364.54 2102.61 1364.54 2102.9 1364.54 2103.16 1364.61 2103.39 1364.76 2103.62 1364.9 2103.8 1365.12 2103.93 1365.41 2104.05 1365.7 2104.15 1366.11 2104.21 1366.63 2104.27 1367.15 2104.3 1367.79 2104.3 1368.54 2104.3 1369.08 2104.28 1369.55 2104.24 1369.94 2104.2 1370.34 2104.15 1370.69 2104.09 1371.01 2104.02 1371.32 2103.92 1371.6 2103.77 1371.85 2103.63 1372.1 2103.44 1372.34 2103.21 1372.57 2102.98 1372.8 2102.3 1373.17 2101.18 1373.69 2100.05 1374.21 2098.6 1374.72 2096.8 1375.22 2095.01 1375.72 2092.94 1376.17 2090.59 1376.57 2088.23 1376.96 2085.72 1377.16 2083.05 1377.16 2078.43 1377.16 2074.38 1376.52 2070.9 1375.22 2067.42 1373.93 2064.49 1372.02 2062.12 1369.47 2059.74 1366.93 2057.95 1363.75 2056.74 1359.91 2055.53 1356.08 2054.93 1351.62 2054.93 1346.54 2054.93 1341.7 2055.55 1337.36 2056.8 1333.51 2058.05 1329.65 2059.86 1326.38 2062.21 1323.69 2064.57 1321.01 2067.41 1318.94 2070.74 1317.51 2074.08 1316.07 2077.8 1315.35 2081.93 1315.35ZM2326.24 1301.16C2327.28 1301.16 2328.14 1301.2 2328.8 1301.29 2329.47 1301.37 2329.99 1301.51 2330.37 1301.69 2330.74 1301.88 2331.01 1302.1 2331.18 1302.35 2331.35 1302.6 2331.43 1302.87 2331.43 1303.16L2331.43 1316.54 2345.87 1316.54C2346.2 1316.54 2346.49 1316.61 2346.74 1316.76 2346.99 1316.9 2347.21 1317.15 2347.4 1317.51 2347.59 1317.86 2347.72 1318.31 2347.8 1318.85 2347.89 1319.39 2347.93 1320.06 2347.93 1320.85 2347.93 1322.35 2347.74 1323.43 2347.37 1324.1 2346.99 1324.77 2346.49 1325.1 2345.87 1325.1L2331.43 1325.1 2331.43 1356.47C2331.43 1360.35 2332 1363.28 2333.15 1365.26 2334.29 1367.24 2336.35 1368.22 2339.3 1368.22 2340.26 1368.22 2341.12 1368.13 2341.87 1367.94 2342.62 1367.76 2343.28 1367.56 2343.87 1367.35 2344.45 1367.14 2344.95 1366.94 2345.37 1366.76 2345.78 1366.57 2346.16 1366.47 2346.49 1366.47 2346.7 1366.47 2346.9 1366.53 2347.09 1366.63 2347.27 1366.74 2347.42 1366.93 2347.52 1367.22 2347.63 1367.52 2347.72 1367.91 2347.8 1368.41 2347.89 1368.91 2347.93 1369.54 2347.93 1370.29 2347.93 1371.5 2347.85 1372.45 2347.68 1373.16 2347.51 1373.87 2347.26 1374.39 2346.93 1374.72 2346.6 1375.06 2346.1 1375.37 2345.43 1375.66 2344.76 1375.95 2344 1376.19 2343.15 1376.38 2342.29 1376.57 2341.39 1376.72 2340.43 1376.85 2339.47 1376.97 2338.51 1377.04 2337.55 1377.04 2334.64 1377.04 2332.14 1376.65 2330.05 1375.88 2327.97 1375.11 2326.26 1373.94 2324.93 1372.38 2323.6 1370.82 2322.63 1368.84 2322.02 1366.44 2321.42 1364.05 2321.12 1361.22 2321.12 1357.97L2321.12 1325.1 2313.24 1325.1C2312.62 1325.1 2312.12 1324.77 2311.74 1324.1 2311.37 1323.43 2311.18 1322.35 2311.18 1320.85 2311.18 1320.06 2311.23 1319.39 2311.34 1318.85 2311.44 1318.31 2311.58 1317.86 2311.74 1317.51 2311.91 1317.15 2312.13 1316.9 2312.4 1316.76 2312.67 1316.61 2312.97 1316.54 2313.3 1316.54L2321.12 1316.54 2321.12 1303.16C2321.12 1302.87 2321.19 1302.6 2321.34 1302.35 2321.48 1302.1 2321.75 1301.88 2322.15 1301.69 2322.54 1301.51 2323.08 1301.37 2323.74 1301.29 2324.41 1301.2 2325.24 1301.16 2326.24 1301.16ZM2021.12 1293.91C2022.91 1293.91 2024.71 1294.07 2026.52 1294.38 2028.34 1294.69 2030.04 1295.11 2031.65 1295.63 2033.25 1296.15 2034.68 1296.74 2035.93 1297.38 2037.18 1298.03 2038 1298.55 2038.4 1298.94 2038.79 1299.34 2039.05 1299.65 2039.18 1299.88 2039.3 1300.11 2039.41 1300.4 2039.49 1300.76 2039.58 1301.11 2039.64 1301.54 2039.68 1302.04 2039.72 1302.54 2039.74 1303.18 2039.74 1303.97 2039.74 1304.72 2039.71 1305.39 2039.65 1305.97 2039.59 1306.56 2039.49 1307.05 2039.37 1307.44 2039.24 1307.84 2039.07 1308.13 2038.84 1308.32 2038.61 1308.51 2038.35 1308.6 2038.05 1308.6 2037.6 1308.6 2036.88 1308.31 2035.9 1307.72 2034.92 1307.14 2033.72 1306.49 2032.3 1305.76 2030.89 1305.03 2029.21 1304.36 2027.27 1303.76 2025.34 1303.15 2023.16 1302.85 2020.74 1302.85 2018.49 1302.85 2016.53 1303.15 2014.87 1303.76 2013.2 1304.36 2011.83 1305.16 2010.74 1306.16 2009.66 1307.16 2008.85 1308.35 2008.3 1309.72 2007.76 1311.1 2007.49 1312.56 2007.49 1314.1 2007.49 1316.35 2008.01 1318.29 2009.05 1319.91 2010.1 1321.54 2011.48 1322.97 2013.21 1324.22 2014.94 1325.47 2016.91 1326.62 2019.12 1327.66 2021.33 1328.7 2023.58 1329.76 2025.87 1330.82 2028.16 1331.88 2030.41 1333.05 2032.62 1334.32 2034.83 1335.59 2036.79 1337.09 2038.52 1338.82 2040.25 1340.55 2041.65 1342.59 2042.71 1344.94 2043.77 1347.3 2044.3 1350.08 2044.3 1353.29 2044.3 1357.08 2043.61 1360.45 2042.21 1363.41 2040.82 1366.37 2038.88 1368.88 2036.4 1370.94 2033.92 1373.01 2031 1374.56 2027.65 1375.6 2024.29 1376.64 2020.68 1377.16 2016.8 1377.16 2014.1 1377.16 2011.59 1376.93 2009.27 1376.47 2006.96 1376.02 2004.9 1375.45 2003.09 1374.79 2001.27 1374.12 1999.75 1373.43 1998.52 1372.72 1997.29 1372.02 1996.44 1371.41 1995.96 1370.91 1995.48 1370.41 1995.13 1369.78 1994.9 1369.01 1994.67 1368.24 1994.55 1367.2 1994.55 1365.91 1994.55 1365 1994.6 1364.24 1994.68 1363.63 1994.76 1363.03 1994.89 1362.54 1995.05 1362.16 1995.22 1361.79 1995.43 1361.53 1995.68 1361.38 1995.93 1361.24 1996.22 1361.16 1996.55 1361.16 1997.14 1361.16 1997.96 1361.52 1999.02 1362.22 2000.09 1362.93 2001.45 1363.7 2003.12 1364.54 2004.78 1365.37 2006.79 1366.15 2009.15 1366.88 2011.5 1367.61 2014.22 1367.97 2017.3 1367.97 2019.64 1367.97 2021.77 1367.66 2023.71 1367.04 2025.65 1366.41 2027.32 1365.53 2028.71 1364.38 2030.11 1363.24 2031.18 1361.83 2031.93 1360.16 2032.68 1358.5 2033.05 1356.6 2033.05 1354.47 2033.05 1352.18 2032.53 1350.22 2031.49 1348.6 2030.45 1346.97 2029.08 1345.55 2027.37 1344.32 2025.66 1343.09 2023.71 1341.96 2021.52 1340.94 2019.34 1339.92 2017.1 1338.88 2014.8 1337.82 2012.51 1336.76 2010.28 1335.58 2008.12 1334.29 2005.95 1333 2004.01 1331.47 2002.3 1329.72 2000.6 1327.97 1999.21 1325.92 1998.15 1323.57 1997.09 1321.21 1996.55 1318.39 1996.55 1315.1 1996.55 1311.72 1997.17 1308.71 1998.4 1306.07 1999.63 1303.42 2001.34 1301.2 2003.52 1299.41 2005.71 1297.62 2008.32 1296.26 2011.34 1295.32 2014.36 1294.38 2017.62 1293.91 2021.12 1293.91ZM2293.87 1293.04C2296.28 1293.04 2297.94 1293.46 2298.84 1294.32 2299.73 1295.17 2300.18 1296.79 2300.18 1299.16 2300.18 1301.58 2299.72 1303.22 2298.8 1304.1 2297.89 1304.97 2296.2 1305.41 2293.74 1305.41 2291.33 1305.41 2289.67 1304.99 2288.77 1304.13 2287.88 1303.28 2287.43 1301.66 2287.43 1299.29 2287.43 1296.87 2287.89 1295.22 2288.8 1294.35 2289.72 1293.47 2291.41 1293.04 2293.87 1293.04Z" stroke="#2B79DB" stroke-linejoin="round" stroke-miterlimit="10" fill="#4472C4" fill-rule="evenodd"/><text fill="#000000" fill-opacity="0" font-family="Arial,Arial_MSFontService,sans-serif" font-size="105.688" x="1994.55" y="1385.51">Security</text><path d="M1925 226C1925 76.3308 2048.12-45 2200-45 2351.88-45 2475 76.3308 2475 226 2475 375.669 2351.88 497 2200 497 2048.12 497 1925 375.669 1925 226Z" fill="url(#fill16)" fill-rule="evenodd"/><text fill="#FFFFFF" font-family="Calibri,Calibri_MSFontService,sans-serif" font-weight="400" font-size="69" transform="matrix(1 0 0 1 2079.37 207)">Network <tspan font-size="69" x="3.94165" y="76">firewalls</tspan></text><path d="M2596 470C2596 320.331 2718.9 199 2870.5 199 3022.1 199 3145 320.331 3145 470 3145 619.669 3022.1 741 2870.5 741 2718.9 741 2596 619.669 2596 470Z" fill="url(#fill17)" fill-rule="evenodd"/><text fill="#FFFFFF" font-family="Calibri,Calibri_MSFontService,sans-serif" font-weight="400" font-size="69" transform="matrix(1 0 0 1 2745.18 413)">Intrusion <tspan font-size="69" x="-26.6748" y="76">prevention </tspan><tspan font-size="69" x="15.2168" y="151">systems</tspan></text><path d="M2953 1088C2953 938.331 3075.9 817 3227.5 817 3379.1 817 3502 938.331 3502 1088 3502 1237.67 3379.1 1359 3227.5 1359 3075.9 1359 2953 1237.67 2953 1088Z" fill="url(#fill18)" fill-rule="evenodd"/><text fill="#FFFFFF" font-family="Calibri,Calibri_MSFontService,sans-serif" font-weight="400" font-size="69" transform="matrix(1 0 0 1 3136.41 1069)">Threat <tspan font-size="69" x="-94.1646" y="76">management</tspan></text><path d="M2829 1791C2829 1641.33 2951.9 1520 3103.5 1520 3255.1 1520 3378 1641.33 3378 1791 3378 1940.67 3255.1 2062 3103.5 2062 2951.9 2062 2829 1940.67 2829 1791Z" fill="url(#fill19)" fill-rule="evenodd"/><text fill="#FFFFFF" font-family="Calibri,Calibri_MSFontService,sans-serif" font-weight="400" font-size="69" transform="matrix(1 0 0 1 2982.94 1734)">Network <tspan font-size="69" x="34.7644" y="76">threat </tspan><tspan font-size="69" x="-31.5105" y="151">prevention</tspan></text><path d="M2282 2249C2282 2099.33 2404.9 1978 2556.5 1978 2708.1 1978 2831 2099.33 2831 2249 2831 2398.67 2708.1 2520 2556.5 2520 2404.9 2520 2282 2398.67 2282 2249Z" fill="url(#fill20)" fill-rule="evenodd"/><text fill="#FFFFFF" font-family="Calibri,Calibri_MSFontService,sans-serif" font-weight="400" font-size="69" transform="matrix(1 0 0 1 2436.21 2193)">Network <tspan font-size="69" x="31.0981" y="76">access </tspan><tspan font-size="69" x="21.5647" y="151">control</tspan></text><path d="M1568 2249C1568 2099.33 1691.12 1978 1843 1978 1994.88 1978 2118 2099.33 2118 2249 2118 2398.67 1994.88 2520 1843 2520 1691.12 2520 1568 2398.67 1568 2249Z" fill="url(#fill21)" fill-rule="evenodd"/><text fill="#FFFFFF" font-family="Calibri,Calibri_MSFontService,sans-serif" font-weight="400" font-size="69" transform="matrix(1 0 0 1 1665.39 2193)">Cloud access <tspan font-size="69" x="67.673" y="76">security </tspan><tspan font-size="69" x="73.6771" y="151">brokers</tspan></text><path d="M1022 1791C1022 1641.33 1144.9 1520 1296.5 1520 1448.1 1520 1571 1641.33 1571 1791 1571 1940.67 1448.1 2062 1296.5 2062 1144.9 2062 1022 1940.67 1022 1791Z" fill="url(#fill22)" fill-rule="evenodd"/><text fill="#FFFFFF" font-family="Calibri,Calibri_MSFontService,sans-serif" font-weight="400" font-size="69" transform="matrix(1 0 0 1 1220.2 1772)">DDoS <tspan font-size="69" x="-65.7709" y="76">mitigation</tspan></text><path d="M898 1088C898 938.331 1020.9 817 1172.5 817 1324.1 817 1447 938.331 1447 1088 1447 1237.67 1324.1 1359 1172.5 1359 1020.9 1359 898 1237.67 898 1088Z" fill="url(#fill23)" fill-rule="evenodd"/><text fill="#FFFFFF" font-family="Calibri,Calibri_MSFontService,sans-serif" font-weight="400" font-size="69" transform="matrix(1 0 0 1 1051.85 1031)">Network <tspan font-size="69" x="0.618652" y="77">anomaly </tspan><tspan font-size="69" x="-12.7188" y="151">detection</tspan></text><path d="M1255 470C1255 320.331 1377.9 199 1529.5 199 1681.1 199 1804 320.331 1804 470 1804 619.669 1681.1 741 1529.5 741 1377.9 741 1255 619.669 1255 470Z" fill="url(#fill24)" fill-rule="evenodd"/><text fill="#FFFFFF" font-family="Calibri,Calibri_MSFontService,sans-serif" font-weight="400" font-size="69" transform="matrix(1 0 0 1 1410.78 451)">SD<tspan font-size="69" x="73.8833" y="0">-</tspan><tspan font-size="69" x="94.9208" y="0">WAN </tspan><tspan font-size="69" x="8.47913" y="76">security</tspan></text></g></svg>