<svg width="1268" height="274" viewBox="0 0 1268 274" fill="none" xmlns="http://www.w3.org/2000/svg">
<path d="M493.3 158.5L464.7 151.8C443.6 147.1 441.2 136.8 441.2 129.5C441.2 116.9 452.8 108.5 470 108.5C485.7 108.5 500.7 115.9 514.5 130.5L517.8 134L542.6 107.7L539.6 104.6C520 84.1999 497.2 73.8999 471.8 73.8999C453.8 73.8999 438.1 78.9999 424.9 88.8999C411.4 99.0999 404.5 113.2 404.5 130.8C404.5 159.8 423 178.9 459.6 187.6L486.7 193.9C511.7 199.8 511.7 211.8 511.7 215.8C511.7 236.8 486.4 239.1 475.5 239.1C455 239.1 438.2 230.6 424.2 213L420.9 208.9L396.4 234.4L398.8 237.5C415.8 259.7 445.4 273.4 475.9 273.4C519.2 273.4 548.4 249.7 548.4 214.3C548.4 185.9 529.8 167.1 493.3 158.5Z" fill="#113E60"/>
<path d="M620.1 78.2H583.5V269.1H620.1V78.2Z" fill="#113E60"/>
<path d="M782.2 69.1V78.3H718.3V69.1C718.3 43.4 726.7 34.4 750.5 34.4H764.7V0.600006L750.1 0.100006C704.7 0.100006 681.7 23.4 681.7 69.2V78.4H652V112.6H681.7V269.1H718.3V112.6H782.2V269.1H818.8V112.6H861.1V78.2H818.8V69C818.8 43.3 827.2 34.3 851 34.3H865.2V0.5L850.6 0C805.2 0 782.2 23.2 782.2 69.1Z" fill="#113E60"/>
<path d="M935.3 0H898.7V269.2H935.3V0Z" fill="#113E60"/>
<path d="M1106.7 89.2C1093.3 79 1076.7 73.8 1057.2 73.8C1030.8 73.8 1009.2 83.7 993.2 103.3C977.7 122.2 969.9 146.3 969.9 174.8C969.9 203.5 978.4 227.4 995.2 245.8C1012.2 264 1035.3 273.2 1063.8 273.2C1093.1 273.2 1118.2 260.9 1138.2 236.7L1141 233.4L1115.3 209.7L1112.2 213.5C1098.5 230.3 1082.7 238.5 1063.8 238.5C1031.8 238.5 1011.5 219.7 1007.6 186.8H1142.4L1142.9 169.6C1143 134.4 1130.7 107.3 1106.7 89.2ZM1009.2 153.2C1015.2 125 1032.7 108.9 1057.9 108.9C1083.6 108.9 1101.5 125.7 1105.5 153.2H1009.2Z" fill="#113E60"/>
<path d="M1268 112.6V78.1999H1225.7V27.3999H1189.1V78.1999H1159.4V112.6H1189.1V211.2C1189.1 251.3 1207.3 269.9 1246.3 269.9C1253.1 269.9 1259.5 269.5 1263.7 269.1L1267.9 268.8V235L1248.9 235.5C1230.6 235.5 1225.6 229.4 1225.6 207.1V112.6H1268Z" fill="#113E60"/>
<path d="M619.7 0H583.5V36.2H619.7V0Z" fill="#FF0042"/>
<path d="M117.9 36.1001C52.9 36.1001 0 89.0001 0 154C0 219 52.9 271.9 117.9 271.9C182.9 271.9 235.7 219 235.7 154V77.0001H117.9C75.4 77.0001 40.9 111.5 40.9 154C40.9 196.5 75.4 231 117.9 231C160.4 231 194.9 196.5 194.9 154C194.9 140.9 191.6 128.6 185.8 117.8H161.6C169.8 127.6 174.7 140.3 174.7 154C174.7 185.3 149.3 210.8 117.9 210.8C86.6 210.8 61.1 185.3 61.1 154C61.1 122.7 86.6 97.2001 117.9 97.2001H215.5V154C215.5 207.8 171.7 251.6 117.9 251.6C64.1 251.6 20.3 207.8 20.3 154C20.3 100.2 64.1 56.4001 117.9 56.4001H309.1V117.8H256.4V138H329.3V36.1001H117.9Z" fill="url(#paint0_linear_59_80)"/>
<defs>
<linearGradient id="paint0_linear_59_80" x1="75.8499" y1="268.898" x2="265.211" y2="-29.4871" gradientUnits="userSpaceOnUse">
<stop stop-color="#FF0042" stop-opacity="0.5"/>
<stop offset="1" stop-color="#FF0042"/>
</linearGradient>
</defs>
</svg>
