<svg width="1413" height="1589" xmlns="http://www.w3.org/2000/svg" xmlns:xlink="http://www.w3.org/1999/xlink" xml:space="preserve" overflow="hidden"><defs><filter id="fx0" x="-10%" y="-10%" width="120%" height="120%" filterUnits="userSpaceOnUse" primitiveUnits="userSpaceOnUse"><feComponentTransfer color-interpolation-filters="sRGB"><feFuncR type="discrete" tableValues="0 0"/><feFuncG type="discrete" tableValues="0 0"/><feFuncB type="discrete" tableValues="0 0"/><feFuncA type="linear" slope="0.2" intercept="0"/></feComponentTransfer><feGaussianBlur stdDeviation="4.58333 4.58333"/></filter><filter id="fx1" x="-10%" y="-10%" width="120%" height="120%" filterUnits="userSpaceOnUse" primitiveUnits="userSpaceOnUse"><feComponentTransfer color-interpolation-filters="sRGB"><feFuncR type="discrete" tableValues="0 0"/><feFuncG type="discrete" tableValues="0 0"/><feFuncB type="discrete" tableValues="0 0"/><feFuncA type="linear" slope="0.2" intercept="0"/></feComponentTransfer><feGaussianBlur stdDeviation="4.58333 4.58333"/></filter><filter id="fx2" x="-10%" y="-10%" width="120%" height="120%" filterUnits="userSpaceOnUse" primitiveUnits="userSpaceOnUse"><feComponentTransfer color-interpolation-filters="sRGB"><feFuncR type="discrete" tableValues="0 0"/><feFuncG type="discrete" tableValues="0 0"/><feFuncB type="discrete" tableValues="0 0"/><feFuncA type="linear" slope="0.2" intercept="0"/></feComponentTransfer><feGaussianBlur stdDeviation="4.58333 4.58333"/></filter><clipPath id="clip3"><rect x="2699" y="575" width="1413" height="1589"/></clipPath><clipPath id="clip4"><rect x="-2" y="-2" width="688" height="688"/></clipPath><clipPath id="clip5"><rect x="0" y="0" width="684" height="684"/></clipPath><clipPath id="clip6"><rect x="-2" y="-2" width="582" height="585"/></clipPath><clipPath id="clip7"><rect x="0" y="0" width="579" height="579"/></clipPath><clipPath id="clip8"><rect x="-2" y="-2" width="493" height="493"/></clipPath><clipPath id="clip9"><rect x="0" y="0" width="491" height="490"/></clipPath></defs><g clip-path="url(#clip3)" transform="translate(-2699 -575)"><path d="M2699 1346.5C2699 1001.6 2978.6 722 3323.5 722 3668.4 722 3948 1001.6 3948 1346.5 3948 1691.4 3668.4 1971 3323.5 1971 2978.6 1971 2699 1691.4 2699 1346.5Z" fill="#F2F2F2" fill-rule="evenodd"/><path d="M36.3795 471.076C131.282 190.054 394.738 0.624937 691.544 0.00204823L692.653 527.062C621.625 527.211 558.568 572.412 535.811 639.492Z" fill="#00C0FF" fill-rule="evenodd" transform="matrix(-1 0 0 1 4026 575)"/><path d="M2699 1346.5C2699 1001.6 2978.6 722 3323.5 722 3668.4 722 3948 1001.6 3948 1346.5 3948 1691.4 3668.4 1971 3323.5 1971 2978.6 1971 2699 1691.4 2699 1346.5Z" fill="#D9D9D9" fill-rule="evenodd"/><path d="M36.3795 471.076C131.282 190.054 394.738 0.624937 691.544 0.00204823L692.653 527.062C621.625 527.211 558.568 572.412 535.811 639.492Z" fill="#00C0FF" fill-rule="evenodd" transform="matrix(-1 0 0 1 4026 575)"/><path d="M136.37 280.056C332.339 15.7549 687.035-74.1597 985.108 64.9025L798.301 465.894C690.568 415.504 562.323 448.064 491.536 543.777Z" fill="#00ABEC" fill-rule="evenodd" transform="matrix(-6.12323e-17 -1 -1 6.12323e-17 4088 1969)"/><path d="M699.892 1384.97C396 1387.99 125.596 1192.8 32.9714 903.558L517.736 748.545C542.368 825.158 614.157 876.844 694.827 876.045Z" fill="#0096CF" fill-rule="evenodd" transform="matrix(-1 0 0 1 4047 779)"/><g clip-path="url(#clip4)" filter="url(#fx0)" transform="translate(3023 1009)"><g clip-path="url(#clip5)"><path d="M15 342.167C15 161.57 161.403 15.1667 342 15.1667 522.597 15.1667 669 161.57 669 342.167 669 522.764 522.597 669.167 342 669.167 161.403 669.167 15 522.764 15 342.167Z" fill="#FFFFFF" fill-rule="evenodd"/></g></g><path d="M3038 1342C3038 1161.4 3184.4 1015 3365 1015 3545.6 1015 3692 1161.4 3692 1342 3692 1522.6 3545.6 1669 3365 1669 3184.4 1669 3038 1522.6 3038 1342Z" fill="#FFFFFF" fill-rule="evenodd"/><g clip-path="url(#clip6)" filter="url(#fx1)" transform="translate(3075 1062)"><g clip-path="url(#clip7)"><path d="M15 289.667C15 138.065 137.898 15.1667 289.5 15.1667 441.102 15.1667 564 138.065 564 289.667 564 441.269 441.102 564.167 289.5 564.167 137.898 564.167 15 441.269 15 289.667Z" fill="#AAAAAA" fill-rule="evenodd"/></g></g><path d="M3090 1342.5C3090 1190.9 3212.9 1068 3364.5 1068 3516.1 1068 3639 1190.9 3639 1342.5 3639 1494.1 3516.1 1617 3364.5 1617 3212.9 1617 3090 1494.1 3090 1342.5Z" fill="#AAAAAA" fill-rule="evenodd"/><g clip-path="url(#clip8)" filter="url(#fx2)" transform="translate(3119 1106)"><g clip-path="url(#clip9)"><path d="M15 245.167C15 118.141 118.198 15.1667 245.5 15.1667 372.802 15.1667 476 118.141 476 245.167 476 372.192 372.802 475.167 245.5 475.167 118.198 475.167 15 372.192 15 245.167Z" fill="#FFFFFF" fill-rule="evenodd"/></g></g><path d="M3134 1342C3134 1214.97 3237.2 1112 3364.5 1112 3491.8 1112 3595 1214.97 3595 1342 3595 1469.03 3491.8 1572 3364.5 1572 3237.2 1572 3134 1469.03 3134 1342Z" fill="#FFFFFF" fill-rule="evenodd"/><path d="M3154 1340.5C3154 1225.35 3247.35 1132 3362.5 1132 3477.65 1132 3571 1225.35 3571 1340.5 3571 1455.65 3477.65 1549 3362.5 1549 3247.35 1549 3154 1455.65 3154 1340.5Z" fill="#73D96E" fill-rule="evenodd"/><text fill="#FFFFFF" font-family="Calibri,Calibri_MSFontService,sans-serif" font-weight="400" font-size="110" transform="matrix(1 0 0 1 3271.91 1378)">SOC<tspan font-size="83" x="268.74" y="-471">SOC 1</tspan><tspan font-size="83" x="497.933" y="-10">SOC 2</tspan><tspan font-size="83" x="254.582" y="467">SOC 3</tspan></text></g></svg>